<svg width="36" height="42" viewBox="0 0 36 42" fill="none" xmlns="http://www.w3.org/2000/svg">
<path d="M9.15033 20.166C9.15033 13.63 14.4227 8.35769 20.9586 8.31412L22.0479 3.56466C21.6994 3.52109 21.3508 3.52109 21.0022 3.52109C11.8519 3.52109 4.40088 10.9721 4.40088 20.1224C4.40088 24.1747 5.83879 27.8784 8.27887 30.7542L11.5468 27.1812C10.0654 25.3076 9.15033 22.8675 9.15033 20.166Z" fill="url(#paint0_linear_30_3512)"/>
<path d="M28.976 28.9242C26.8845 30.8414 24.0958 32.0178 21.0021 32.0178C17.6906 32.0178 14.6841 30.6235 12.5054 28.4449L9.28101 31.9743C12.2875 34.9808 16.427 36.8109 21.0021 36.8109C25.4466 36.8109 29.4989 35.0679 32.4618 32.1921L28.976 28.9242Z" fill="url(#paint1_linear_30_3512)"/>
<path d="M23.5731 3.78253L22.5273 8.44484C25.011 8.74985 27.2332 9.83918 28.9761 11.4514L32.8106 8.53199C30.3705 6.04833 27.1461 4.34898 23.5731 3.78253Z" fill="url(#paint2_linear_30_3512)"/>
<path d="M16.6884 11.3207C13.3769 12.9329 11.1111 16.3316 11.1111 20.2531C11.1111 24.1747 13.3769 27.5734 16.6884 29.1856" stroke="url(#paint3_linear_30_3512)" stroke-miterlimit="10"/>
<path d="M16.6885 13.5429C17.9158 13.5429 18.9108 12.548 18.9108 11.3207C18.9108 10.0934 17.9158 9.09845 16.6885 9.09845C15.4612 9.09845 14.4663 10.0934 14.4663 11.3207C14.4663 12.548 15.4612 13.5429 16.6885 13.5429Z" fill="url(#paint4_radial_30_3512)"/>
<path d="M15.6426 11.3207C15.6426 11.8871 16.1219 12.3664 16.6883 12.3664C17.2548 12.3664 17.7341 11.8871 17.7341 11.3207C17.7341 10.7542 17.2548 10.2749 16.6883 10.2749C16.0783 10.2749 15.6426 10.7542 15.6426 11.3207Z" fill="url(#paint5_linear_30_3512)"/>
<path d="M16.6885 30.8414C17.9158 30.8414 18.9108 29.8464 18.9108 28.6191C18.9108 27.3918 17.9158 26.3969 16.6885 26.3969C15.4612 26.3969 14.4663 27.3918 14.4663 28.6191C14.4663 29.8464 15.4612 30.8414 16.6885 30.8414Z" fill="url(#paint6_radial_30_3512)"/>
<path d="M15.6426 28.6191C15.6426 29.1856 16.1219 29.6649 16.6883 29.6649C17.2548 29.6649 17.7341 29.1856 17.7341 28.6191C17.7341 28.0527 17.2548 27.5734 16.6883 27.5734C16.0783 27.5734 15.6426 28.0527 15.6426 28.6191Z" fill="url(#paint7_linear_30_3512)"/>
<path d="M32.9412 34.7194C29.6732 37.4209 25.5338 38.9895 21.0022 38.9895" stroke="url(#paint8_linear_30_3512)" stroke-miterlimit="10"/>
<path d="M7.40747 7.26838C10.8062 3.65182 15.6428 1.4296 21.0022 1.4296C25.5338 1.4296 29.7168 3.0418 32.9412 5.69975" stroke="url(#paint9_linear_30_3512)" stroke-miterlimit="10"/>
<path d="M2.22217 20.2096C2.22217 16.3751 3.39864 12.8022 5.35942 9.79562" stroke="url(#paint10_linear_30_3512)" stroke-miterlimit="10"/>
<path d="M17.6905 38.7281C9.84735 37.3337 3.70356 31.1028 2.43994 23.2161" stroke="url(#paint11_linear_30_3512)" stroke-miterlimit="10"/>
<path d="M32.9412 37.0287C34.1685 37.0287 35.1634 36.0338 35.1634 34.8065C35.1634 33.5792 34.1685 32.5843 32.9412 32.5843C31.7139 32.5843 30.719 33.5792 30.719 34.8065C30.719 36.0338 31.7139 37.0287 32.9412 37.0287Z" fill="url(#paint12_radial_30_3512)"/>
<path d="M32.9413 35.8522C33.5188 35.8522 33.987 35.384 33.987 34.8065C33.987 34.2289 33.5188 33.7607 32.9413 33.7607C32.3637 33.7607 31.8955 34.2289 31.8955 34.8065C31.8955 35.384 32.3637 35.8522 32.9413 35.8522Z" fill="url(#paint13_linear_30_3512)"/>
<path d="M21.525 41.4296C22.7523 41.4296 23.7472 40.4347 23.7472 39.2074C23.7472 37.9801 22.7523 36.9852 21.525 36.9852C20.2977 36.9852 19.3027 37.9801 19.3027 39.2074C19.3027 40.4347 20.2977 41.4296 21.525 41.4296Z" fill="url(#paint14_radial_30_3512)"/>
<path d="M21.525 40.2531C22.1026 40.2531 22.5708 39.7849 22.5708 39.2074C22.5708 38.6298 22.1026 38.1616 21.525 38.1616C20.9474 38.1616 20.4792 38.6298 20.4792 39.2074C20.4792 39.7849 20.9474 40.2531 21.525 40.2531Z" fill="url(#paint15_linear_30_3512)"/>
<path d="M17.3856 40.9503C18.6129 40.9503 19.6078 39.9554 19.6078 38.7281C19.6078 37.5008 18.6129 36.5059 17.3856 36.5059C16.1583 36.5059 15.1633 37.5008 15.1633 38.7281C15.1633 39.9554 16.1583 40.9503 17.3856 40.9503Z" fill="url(#paint16_radial_30_3512)"/>
<path d="M17.3856 39.7738C17.9631 39.7738 18.4313 39.3056 18.4313 38.7281C18.4313 38.1505 17.9631 37.6823 17.3856 37.6823C16.808 37.6823 16.3398 38.1505 16.3398 38.7281C16.3398 39.3056 16.808 39.7738 17.3856 39.7738Z" fill="url(#paint17_linear_30_3512)"/>
<path d="M2.61431 26.0483C3.84161 26.0483 4.83653 25.0534 4.83653 23.8261C4.83653 22.5988 3.84161 21.6039 2.61431 21.6039C1.38701 21.6039 0.39209 22.5988 0.39209 23.8261C0.39209 25.0534 1.38701 26.0483 2.61431 26.0483Z" fill="url(#paint18_radial_30_3512)"/>
<path d="M2.61436 24.8719C3.19191 24.8719 3.66011 24.4037 3.66011 23.8261C3.66011 23.2486 3.19191 22.7804 2.61436 22.7804C2.0368 22.7804 1.5686 23.2486 1.5686 23.8261C1.5686 24.4037 2.0368 24.8719 2.61436 24.8719Z" fill="url(#paint19_linear_30_3512)"/>
<path d="M2.22222 21.9089C3.44952 21.9089 4.44444 20.914 4.44444 19.6867C4.44444 18.4594 3.44952 17.4644 2.22222 17.4644C0.994923 17.4644 0 18.4594 0 19.6867C0 20.914 0.994923 21.9089 2.22222 21.9089Z" fill="url(#paint20_radial_30_3512)"/>
<path d="M2.22227 20.7324C2.79982 20.7324 3.26802 20.2642 3.26802 19.6867C3.26802 19.1091 2.79982 18.6409 2.22227 18.6409C1.64471 18.6409 1.17651 19.1091 1.17651 19.6867C1.17651 20.2642 1.64471 20.7324 2.22227 20.7324Z" fill="url(#paint21_linear_30_3512)"/>
<path d="M5.18511 12.4971C6.41241 12.4971 7.40733 11.5022 7.40733 10.2749C7.40733 9.04763 6.41241 8.0527 5.18511 8.0527C3.95781 8.0527 2.96289 9.04763 2.96289 10.2749C2.96289 11.5022 3.95781 12.4971 5.18511 12.4971Z" fill="url(#paint22_radial_30_3512)"/>
<path d="M5.18516 11.3207C5.76271 11.3207 6.23091 10.8525 6.23091 10.2749C6.23091 9.69736 5.76271 9.22916 5.18516 9.22916C4.6076 9.22916 4.1394 9.69736 4.1394 10.2749C4.1394 10.8525 4.6076 11.3207 5.18516 11.3207Z" fill="url(#paint23_linear_30_3512)"/>
<path d="M5.53369 7.00695C5.53369 8.22699 6.53587 9.22917 7.75591 9.22917C8.97596 9.22917 9.97814 8.22699 9.97814 7.00695C9.97814 5.78691 8.97596 4.78473 7.75591 4.78473C6.4923 4.8283 5.53369 5.78691 5.53369 7.00695Z" fill="url(#paint24_radial_30_3512)"/>
<path d="M6.66675 7.00693C6.66675 7.57338 7.14605 8.05269 7.7125 8.05269C8.27895 8.05269 8.75825 7.57338 8.75825 7.00693C8.75825 6.44048 8.27895 5.96118 7.7125 5.96118C7.14605 6.00475 6.66675 6.44048 6.66675 7.00693Z" fill="url(#paint25_linear_30_3512)"/>
<path d="M33.1155 8.00911C34.3428 8.00911 35.3378 7.01419 35.3378 5.78689C35.3378 4.55959 34.3428 3.56467 33.1155 3.56467C31.8882 3.56467 30.8933 4.55959 30.8933 5.78689C30.8933 7.01419 31.8882 8.00911 33.1155 8.00911Z" fill="url(#paint26_radial_30_3512)"/>
<path d="M33.1156 6.83265C33.6931 6.83265 34.1613 6.36445 34.1613 5.7869C34.1613 5.20935 33.6931 4.74115 33.1156 4.74115C32.538 4.74115 32.0698 5.20935 32.0698 5.7869C32.0698 6.36445 32.538 6.83265 33.1156 6.83265Z" fill="url(#paint27_linear_30_3512)"/>
<defs>
<linearGradient id="paint0_linear_30_3512" x1="13.2272" y1="14.4988" x2="13.2272" y2="41.0894" gradientUnits="userSpaceOnUse">
<stop offset="0.0873016" stop-color="#EB5757"/>
<stop offset="0.9709" stop-color="#3C53D7"/>
</linearGradient>
<linearGradient id="paint1_linear_30_3512" x1="20.8751" y1="31.8172" x2="20.8751" y2="39.9858" gradientUnits="userSpaceOnUse">
<stop offset="0.0873016" stop-color="#EB5757"/>
<stop offset="0.9709" stop-color="#3C53D7"/>
</linearGradient>
<linearGradient id="paint2_linear_30_3512" x1="27.6706" y1="6.87387" x2="27.6706" y2="14.3618" gradientUnits="userSpaceOnUse">
<stop offset="0.0873016" stop-color="#EB5757"/>
<stop offset="0.9709" stop-color="#3C53D7"/>
</linearGradient>
<linearGradient id="paint3_linear_30_3512" x1="13.9006" y1="18.5221" x2="13.9006" y2="35.9655" gradientUnits="userSpaceOnUse">
<stop offset="0.0873016" stop-color="#EB5757"/>
<stop offset="0.9709" stop-color="#3C53D7"/>
</linearGradient>
<radialGradient id="paint4_radial_30_3512" cx="0" cy="0" r="1" gradientUnits="userSpaceOnUse" gradientTransform="translate(16.7084 11.3198) scale(2.01651)">
<stop stop-color="#7F00FE"/>
<stop offset="1" stop-color="#450528" stop-opacity="0"/>
</radialGradient>
<linearGradient id="paint5_linear_30_3512" x1="16.6887" y1="11.118" x2="16.6887" y2="13.1602" gradientUnits="userSpaceOnUse">
<stop offset="0.0873016" stop-color="#EB5757"/>
<stop offset="0.9709" stop-color="#3C53D7"/>
</linearGradient>
<radialGradient id="paint6_radial_30_3512" cx="0" cy="0" r="1" gradientUnits="userSpaceOnUse" gradientTransform="translate(16.7084 28.6183) scale(2.01651)">
<stop stop-color="#7F00FE"/>
<stop offset="1" stop-color="#450528" stop-opacity="0"/>
</radialGradient>
<linearGradient id="paint7_linear_30_3512" x1="16.6887" y1="28.4165" x2="16.6887" y2="30.4586" gradientUnits="userSpaceOnUse">
<stop offset="0.0873016" stop-color="#EB5757"/>
<stop offset="0.9709" stop-color="#3C53D7"/>
</linearGradient>
<linearGradient id="paint8_linear_30_3512" x1="26.9736" y1="36.4407" x2="26.9736" y2="40.6101" gradientUnits="userSpaceOnUse">
<stop offset="0.0873016" stop-color="#EB5757"/>
<stop offset="0.9709" stop-color="#3C53D7"/>
</linearGradient>
<linearGradient id="paint9_linear_30_3512" x1="20.1784" y1="3.78323" x2="20.1784" y2="9.48425" gradientUnits="userSpaceOnUse">
<stop offset="0.0873016" stop-color="#EB5757"/>
<stop offset="0.9709" stop-color="#3C53D7"/>
</linearGradient>
<linearGradient id="paint10_linear_30_3512" x1="3.7913" y1="13.9935" x2="3.7913" y2="24.1618" gradientUnits="userSpaceOnUse">
<stop offset="0.0873016" stop-color="#EB5757"/>
<stop offset="0.9709" stop-color="#3C53D7"/>
</linearGradient>
<linearGradient id="paint11_linear_30_3512" x1="10.0677" y1="29.469" x2="10.0677" y2="44.615" gradientUnits="userSpaceOnUse">
<stop offset="0.0873016" stop-color="#EB5757"/>
<stop offset="0.9709" stop-color="#3C53D7"/>
</linearGradient>
<radialGradient id="paint12_radial_30_3512" cx="0" cy="0" r="1" gradientUnits="userSpaceOnUse" gradientTransform="translate(32.961 34.8057) scale(2.01651)">
<stop stop-color="#7F00FE"/>
<stop offset="1" stop-color="#450528" stop-opacity="0"/>
</radialGradient>
<linearGradient id="paint13_linear_30_3512" x1="32.9416" y1="34.6038" x2="32.9416" y2="36.646" gradientUnits="userSpaceOnUse">
<stop offset="0.0873016" stop-color="#EB5757"/>
<stop offset="0.9709" stop-color="#3C53D7"/>
</linearGradient>
<radialGradient id="paint14_radial_30_3512" cx="0" cy="0" r="1" gradientUnits="userSpaceOnUse" gradientTransform="translate(21.5448 39.2066) scale(2.01651)">
<stop stop-color="#7F00FE"/>
<stop offset="1" stop-color="#450528" stop-opacity="0"/>
</radialGradient>
<linearGradient id="paint15_linear_30_3512" x1="21.5253" y1="39.0047" x2="21.5253" y2="41.0469" gradientUnits="userSpaceOnUse">
<stop offset="0.0873016" stop-color="#EB5757"/>
<stop offset="0.9709" stop-color="#3C53D7"/>
</linearGradient>
<radialGradient id="paint16_radial_30_3512" cx="0" cy="0" r="1" gradientUnits="userSpaceOnUse" gradientTransform="translate(17.4054 38.7273) scale(2.01651)">
<stop stop-color="#7F00FE"/>
<stop offset="1" stop-color="#450528" stop-opacity="0"/>
</radialGradient>
<linearGradient id="paint17_linear_30_3512" x1="17.3859" y1="38.5254" x2="17.3859" y2="40.5676" gradientUnits="userSpaceOnUse">
<stop offset="0.0873016" stop-color="#EB5757"/>
<stop offset="0.9709" stop-color="#3C53D7"/>
</linearGradient>
<radialGradient id="paint18_radial_30_3512" cx="0" cy="0" r="1" gradientUnits="userSpaceOnUse" gradientTransform="translate(2.63414 23.8253) scale(2.01651)">
<stop stop-color="#7F00FE"/>
<stop offset="1" stop-color="#450528" stop-opacity="0"/>
</radialGradient>
<linearGradient id="paint19_linear_30_3512" x1="2.61469" y1="23.6235" x2="2.61469" y2="25.6656" gradientUnits="userSpaceOnUse">
<stop offset="0.0873016" stop-color="#EB5757"/>
<stop offset="0.9709" stop-color="#3C53D7"/>
</linearGradient>
<radialGradient id="paint20_radial_30_3512" cx="0" cy="0" r="1" gradientUnits="userSpaceOnUse" gradientTransform="translate(2.24205 19.6858) scale(2.01651)">
<stop stop-color="#7F00FE"/>
<stop offset="1" stop-color="#450528" stop-opacity="0"/>
</radialGradient>
<linearGradient id="paint21_linear_30_3512" x1="2.2226" y1="19.484" x2="2.2226" y2="21.5262" gradientUnits="userSpaceOnUse">
<stop offset="0.0873016" stop-color="#EB5757"/>
<stop offset="0.9709" stop-color="#3C53D7"/>
</linearGradient>
<radialGradient id="paint22_radial_30_3512" cx="0" cy="0" r="1" gradientUnits="userSpaceOnUse" gradientTransform="translate(5.20494 10.2741) scale(2.01651)">
<stop stop-color="#7F00FE"/>
<stop offset="1" stop-color="#450528" stop-opacity="0"/>
</radialGradient>
<linearGradient id="paint23_linear_30_3512" x1="5.18549" y1="10.0722" x2="5.18549" y2="12.1144" gradientUnits="userSpaceOnUse">
<stop offset="0.0873016" stop-color="#EB5757"/>
<stop offset="0.9709" stop-color="#3C53D7"/>
</linearGradient>
<radialGradient id="paint24_radial_30_3512" cx="0" cy="0" r="1" gradientUnits="userSpaceOnUse" gradientTransform="translate(7.77574 7.00612) scale(2.01651)">
<stop stop-color="#7F00FE"/>
<stop offset="1" stop-color="#450528" stop-opacity="0"/>
</radialGradient>
<linearGradient id="paint25_linear_30_3512" x1="7.71284" y1="6.80427" x2="7.71284" y2="8.84643" gradientUnits="userSpaceOnUse">
<stop offset="0.0873016" stop-color="#EB5757"/>
<stop offset="0.9709" stop-color="#3C53D7"/>
</linearGradient>
<radialGradient id="paint26_radial_30_3512" cx="0" cy="0" r="1" gradientUnits="userSpaceOnUse" gradientTransform="translate(33.1354 5.78606) scale(2.01651)">
<stop stop-color="#7F00FE"/>
<stop offset="1" stop-color="#450528" stop-opacity="0"/>
</radialGradient>
<linearGradient id="paint27_linear_30_3512" x1="33.1159" y1="5.58424" x2="33.1159" y2="7.6264" gradientUnits="userSpaceOnUse">
<stop offset="0.0873016" stop-color="#EB5757"/>
<stop offset="0.9709" stop-color="#3C53D7"/>
</linearGradient>
</defs>
</svg>
