<svg width="33" height="33" viewBox="0 0 33 33" fill="none" xmlns="http://www.w3.org/2000/svg">
<rect x="0.587891" y="0.60791" width="31" height="31" rx="9.5" stroke="#616161"/>
<path d="M18.2322 10.1123H16.8415C16.4924 10.0901 16.1432 10.152 15.8174 10.2938C15.4915 10.4356 15.1967 10.6539 14.9528 10.9341C14.7089 11.2143 14.5216 11.5498 14.4036 11.9179C14.2856 12.286 14.2396 12.6781 14.2687 13.0678V14.429H12.8697C12.8118 14.429 12.7563 14.4547 12.7153 14.5005C12.6744 14.5463 12.6514 14.6084 12.6514 14.6732V16.6417C12.6516 16.7064 12.6746 16.7684 12.7155 16.8142C12.7564 16.8599 12.8119 16.8857 12.8697 16.8859H14.2687V21.8637C14.2689 21.9285 14.2921 21.9906 14.3331 22.0364C14.3742 22.0822 14.4298 22.1079 14.4878 22.1079H16.3117C16.3696 22.1079 16.4252 22.0822 16.4663 22.0364C16.5073 21.9906 16.5305 21.9285 16.5307 21.8637V16.8859H18.1654C18.2233 16.8859 18.2789 16.8602 18.3198 16.8144C18.3608 16.7686 18.3838 16.7065 18.3838 16.6417V14.6677C18.3835 14.603 18.3606 14.541 18.3198 14.4951C18.2994 14.4723 18.2753 14.4542 18.2487 14.442C18.222 14.4297 18.1935 14.4234 18.1647 14.4235H16.5293V13.2693C16.5293 12.7147 16.6475 12.4332 17.2942 12.4332H18.2315C18.2894 12.4332 18.3449 12.4075 18.3859 12.3617C18.4268 12.3159 18.4498 12.2537 18.4498 12.189V10.3573C18.4498 10.2926 18.4269 10.2305 18.3862 10.1846C18.3454 10.1387 18.29 10.1127 18.2322 10.1123Z" fill="#616161"/>
</svg>
