<svg width="33" height="33" viewBox="0 0 33 33" fill="none" xmlns="http://www.w3.org/2000/svg">
<rect x="1.22852" y="0.60791" width="31" height="31" rx="9.5" stroke="#616161"/>
<path d="M12.0495 10.6079H12.0491C11.9343 10.6078 11.8202 10.6311 11.7132 10.6769C11.6061 10.7227 11.5076 10.7904 11.4239 10.8769C11.3401 10.9635 11.2728 11.0672 11.2266 11.1826C11.1803 11.2979 11.1563 11.4221 11.1562 11.5479L12.0495 10.6079ZM12.0495 10.6079C12.1642 10.6079 12.2782 10.6313 12.3852 10.6772C12.4922 10.723 12.5906 10.7908 12.6742 10.8774C12.7578 10.964 12.8251 11.0678 12.8712 11.1832C12.9173 11.2986 12.9412 11.4228 12.9411 11.5486V11.549M12.0495 10.6079L12.9411 11.549M12.9411 11.549C12.9411 12.0907 12.5187 12.5043 12.0479 12.5043C11.5788 12.5043 11.1563 12.0916 11.1562 11.5481L12.9411 11.549ZM16.6851 15.6883H16.9911L17.1303 15.4157C17.3815 14.9241 17.8943 14.4261 18.8452 14.4261C19.9349 14.4261 20.4693 14.7787 20.7723 15.2711C21.1095 15.8192 21.226 16.6397 21.226 17.7072V21.6079H19.8239V18.2079V18.1974C19.8239 17.7547 19.8239 17.1323 19.6279 16.62C19.5239 16.3483 19.3556 16.0797 19.0817 15.882C18.8054 15.6826 18.4653 15.5866 18.074 15.5866C17.6948 15.5866 17.36 15.6635 17.0801 15.8334C16.7969 16.0054 16.6092 16.2489 16.4878 16.5144C16.2602 17.0121 16.2483 17.636 16.2483 18.1419V21.6079H14.8462V14.5957H16.1513V15.1883V15.6883H16.6513H16.6851ZM12.7513 21.6079H11.3476V14.5952H12.7513V21.6079Z" fill="#616161" stroke="#616161"/>
</svg>
