<svg width="33" height="33" viewBox="0 0 33 33" fill="none" xmlns="http://www.w3.org/2000/svg">
<rect x="0.549316" y="0.60791" width="31" height="31" rx="9.5" stroke="#616161"/>
<path d="M21.7221 13.2465L21.7222 13.2574L21.7228 13.2683C21.7638 13.9937 21.764 14.2202 21.7655 16.1124L21.7655 16.1188C21.7655 16.1189 21.7655 16.119 21.7655 16.1192C21.7655 18.0114 21.7558 18.2402 21.724 18.9767L21.7238 18.9767L21.7236 18.9886C21.7134 19.5147 21.6179 20.0321 21.4402 20.5225C21.2899 20.9221 21.0615 21.2839 20.7703 21.5852C20.4791 21.8865 20.1317 22.1208 19.7506 22.2742C19.2809 22.4563 18.7852 22.5543 18.2845 22.5646L18.2744 22.5648L18.2644 22.5654C17.566 22.6077 17.3469 22.6079 15.5119 22.6079C13.684 22.6079 13.4637 22.5979 12.7522 22.565L12.7522 22.5649L12.7462 22.5647C12.2435 22.5476 11.7471 22.4419 11.2781 22.2518L11.2762 22.251C10.8939 22.0979 10.5455 21.8635 10.2536 21.5618C9.96235 21.2606 9.73388 20.8989 9.58371 20.4994C9.40589 20.0081 9.31039 19.4905 9.30021 18.9653L9.30003 18.956L9.29951 18.9467C9.25845 18.2214 9.2583 17.9939 9.2583 16.0955C9.2583 14.2037 9.26802 13.9749 9.29984 13.2376L9.29999 13.2376L9.30022 13.2252C9.3098 12.7012 9.40574 12.1831 9.58367 11.6933C9.73358 11.2934 9.96191 10.9315 10.2532 10.6302C10.5443 10.3289 10.8918 10.0948 11.273 9.94168C11.7427 9.75957 12.2384 9.6612 12.7391 9.65048L12.7486 9.65028L12.7582 9.64971C13.4569 9.60807 13.6763 9.60791 15.5112 9.60791C17.3395 9.60791 17.5596 9.6172 18.2701 9.65006L18.27 9.65022L18.2825 9.65049C18.7835 9.66113 19.2793 9.75948 19.7492 9.94165C20.1304 10.0949 20.4779 10.3291 20.769 10.6303C21.0603 10.9317 21.2887 11.2937 21.4387 11.6935C21.6193 12.1899 21.7152 12.7154 21.7221 13.2465ZM18.1808 11.432L18.5404 11.7795L18.1808 11.432C18.0602 11.5568 17.9654 11.7041 17.901 11.8649C17.8366 12.0258 17.8037 12.1976 17.8037 12.3708C17.8037 12.5249 17.8296 12.6742 17.8775 12.8136C17.1979 12.2918 16.3678 12.0035 15.5067 12.0035C13.2989 12.0035 11.5391 13.8495 11.5391 16.0916C11.5391 18.3338 13.2989 20.1797 15.5067 20.1797C16.5645 20.1797 17.5755 19.7447 18.3181 18.9762C19.0602 18.2084 19.4742 17.1704 19.4742 16.0916C19.4742 15.201 19.192 14.3382 18.676 13.6322C18.8116 13.6809 18.9582 13.7075 19.1122 13.7075C19.8509 13.7075 20.4201 13.093 20.4201 12.3708C20.4201 12.1976 20.3871 12.0258 20.3227 11.8649C20.2583 11.7041 20.1635 11.5568 20.0429 11.432C19.9222 11.3071 19.778 11.2071 19.6181 11.1386C19.4581 11.07 19.2861 11.0345 19.1119 11.0345C18.9376 11.0345 18.7656 11.07 18.6056 11.1386C18.4457 11.2071 18.3015 11.3071 18.1808 11.432Z" fill="#616161" stroke="#616161"/>
<path d="M17.2588 16.0915C17.2588 17.1188 16.4582 17.9222 15.5064 17.9222C14.5545 17.9222 13.7539 17.1188 13.7539 16.0915C13.7539 15.0642 14.5545 14.2607 15.5064 14.2607C16.4582 14.2607 17.2588 15.0642 17.2588 16.0915Z" fill="#616161" stroke="#616161"/>
</svg>
