<svg width="64" height="72" viewBox="0 0 64 72" fill="none" xmlns="http://www.w3.org/2000/svg">
<path d="M51.5 1.21826H12.5059V70.7669H51.5V1.21826Z" fill="#4D0063" stroke="#280074" stroke-miterlimit="10"/>
<path d="M40.2621 3.2041H23.7888V4.96426H40.2621V3.2041Z" fill="#280074"/>
<path d="M12.5059 1.21826V70.7669H32.003V68.7811V66.2537V64.2679V6.22793V4.96423V3.20408V1.21826H12.5059Z" fill="#4D0063"/>
<path d="M49.4241 6.22791H14.582V64.2679H49.4241V6.22791Z" fill="white" stroke="#280074" stroke-miterlimit="10" stroke-linecap="round" stroke-linejoin="round"/>
<path d="M32.3641 6.22791H14.582V64.2679H32.3641V6.22791Z" fill="#C08ACF"/>
<path d="M36.0647 67.5174C36.0647 68.1943 35.5231 68.7811 34.801 68.7811H29.2046C28.5276 68.7811 27.9409 68.2395 27.9409 67.5174C27.9409 66.8404 28.4825 66.2537 29.2046 66.2537H34.801C35.5231 66.2537 36.0647 66.8404 36.0647 67.5174Z" fill="white" stroke="#280074" stroke-miterlimit="10" stroke-linecap="round" stroke-linejoin="round"/>
<path d="M29.1146 66.2537C28.4828 66.2537 27.9863 66.7952 27.9863 67.5174C27.9863 68.2395 28.4828 68.7811 29.1146 68.7811H32.0482V66.2988H29.1146V66.2537Z" fill="#C08ACF"/>
<path d="M27.7606 28.1171V21.3924L26.2261 19.1809V11.5084" stroke="#280074" stroke-miterlimit="10"/>
<path d="M36.3357 28.117V23.0171L37.8702 20.8056V11.7792" stroke="#280074" stroke-miterlimit="10"/>
<path d="M33.8081 28.117V21.618L35.3426 20.0384V14.2163" stroke="#280074" stroke-miterlimit="10"/>
<path d="M30.2879 28.117V21.618L28.7534 20.0384V14.2163" stroke="#280074" stroke-miterlimit="10"/>
<path d="M32.0481 28.117V15.8862" stroke="#280074" stroke-miterlimit="10"/>
<path d="M32.9959 16.6986C32.9959 17.2854 32.4995 17.7818 31.9128 17.7818C31.326 17.7818 30.8296 17.2854 30.8296 16.6986C30.8296 16.1119 31.326 15.6155 31.9128 15.6155C32.5446 15.6155 32.9959 16.1119 32.9959 16.6986Z" fill="#280074"/>
<path d="M29.7913 13.6747C29.7913 14.2614 29.2949 14.7579 28.7082 14.7579C28.1215 14.7579 27.625 14.2614 27.625 13.6747C27.625 13.088 28.1215 12.5916 28.7082 12.5916C29.2949 12.5916 29.7913 13.088 29.7913 13.6747Z" fill="#280074"/>
<path d="M36.3807 13.6747C36.3807 14.2614 35.8842 14.7579 35.2975 14.7579C34.7108 14.7579 34.2144 14.2614 34.2144 13.6747C34.2144 13.088 34.7108 12.5916 35.2975 12.5916C35.9294 12.5916 36.3807 13.088 36.3807 13.6747Z" fill="#280074"/>
<path d="M38.908 11.0119C38.908 11.5986 38.4116 12.0951 37.8249 12.0951C37.2382 12.0951 36.7417 11.5986 36.7417 11.0119C36.7417 10.4252 37.2382 9.92871 37.8249 9.92871C38.4567 9.97384 38.908 10.4252 38.908 11.0119Z" fill="#280074"/>
<path d="M27.3092 11.0119C27.3092 11.5986 26.8127 12.0951 26.226 12.0951C25.6393 12.0951 25.1428 11.5986 25.1428 11.0119C25.1428 10.4252 25.6393 9.92871 26.226 9.92871C26.8127 9.97384 27.3092 10.4252 27.3092 11.0119Z" fill="#280074"/>
<path d="M36.3357 43.823V50.5928L37.8702 52.8043V60.4316" stroke="#280074" stroke-miterlimit="10"/>
<path d="M27.7606 43.823V48.9681L26.2261 51.1795V60.206" stroke="#280074" stroke-miterlimit="10"/>
<path d="M30.2879 43.823V50.322L28.7534 51.9017V57.7237" stroke="#280074" stroke-miterlimit="10"/>
<path d="M33.8081 43.823V50.322L35.3426 51.9017V57.7237" stroke="#280074" stroke-miterlimit="10"/>
<path d="M32.0481 43.823V56.0989" stroke="#280074" stroke-miterlimit="10"/>
<path d="M31.0552 55.2865C31.0552 54.6998 31.5516 54.2034 32.1384 54.2034C32.7251 54.2034 33.2215 54.6998 33.2215 55.2865C33.2215 55.8733 32.7251 56.3697 32.1384 56.3697C31.5516 56.3697 31.0552 55.8733 31.0552 55.2865Z" fill="#280074"/>
<path d="M34.3047 58.3105C34.3047 57.7237 34.8011 57.2273 35.3879 57.2273C35.9746 57.2273 36.471 57.7237 36.471 58.3105C36.471 58.8972 35.9746 59.3936 35.3879 59.3936C34.8011 59.3936 34.3047 58.8972 34.3047 58.3105Z" fill="#280074"/>
<path d="M27.6704 58.3105C27.6704 57.7237 28.1669 57.2273 28.7536 57.2273C29.3403 57.2273 29.8368 57.7237 29.8368 58.3105C29.8368 58.8972 29.3403 59.3936 28.7536 59.3936C28.1669 59.3936 27.6704 58.8972 27.6704 58.3105Z" fill="#280074"/>
<path d="M25.188 60.9281C25.188 60.3414 25.6844 59.845 26.2712 59.845C26.8579 59.845 27.3543 60.3414 27.3543 60.9281C27.3543 61.5149 26.8579 62.0113 26.2712 62.0113C25.6393 62.0113 25.188 61.5149 25.188 60.9281Z" fill="#280074"/>
<path d="M36.7871 60.9281C36.7871 60.3414 37.2836 59.845 37.8703 59.845C38.457 59.845 38.9535 60.3414 38.9535 60.9281C38.9535 61.5149 38.457 62.0113 37.8703 62.0113C37.2384 62.0113 36.7871 61.5149 36.7871 60.9281Z" fill="#280074"/>
<path d="M44.8655 31.6373H51.6353L53.8468 30.1028H61.4741" stroke="#280074" stroke-miterlimit="10"/>
<path d="M44.8655 40.1674H49.9654L52.1769 41.7019H61.2033" stroke="#280074" stroke-miterlimit="10"/>
<path d="M44.8655 37.6851H51.3645L52.9441 39.1744H58.7662" stroke="#280074" stroke-miterlimit="10"/>
<path d="M44.8655 34.1196H51.3645L52.9441 32.6302H58.7662" stroke="#280074" stroke-miterlimit="10"/>
<path d="M44.8655 35.9249H57.0963" stroke="#280074" stroke-miterlimit="10"/>
<path d="M56.329 36.8726C55.7423 36.8726 55.2458 36.3762 55.2458 35.7895C55.2458 35.2028 55.7423 34.7063 56.329 34.7063C56.9157 34.7063 57.4122 35.2028 57.4122 35.7895C57.3671 36.4213 56.9157 36.8726 56.329 36.8726Z" fill="#280074"/>
<path d="M59.353 33.6231C58.7662 33.6231 58.2698 33.1267 58.2698 32.54C58.2698 31.9532 58.7662 31.4568 59.353 31.4568C59.9397 31.4568 60.4361 31.9532 60.4361 32.54C60.391 33.1718 59.9397 33.6231 59.353 33.6231Z" fill="#280074"/>
<path d="M59.353 40.2575C58.7662 40.2575 58.2698 39.7611 58.2698 39.1744C58.2698 38.5876 58.7662 38.0912 59.353 38.0912C59.9397 38.0912 60.4361 38.5876 60.4361 39.1744C60.391 39.7611 59.9397 40.2575 59.353 40.2575Z" fill="#280074"/>
<path d="M61.9706 42.785C61.3839 42.785 60.8875 42.2885 60.8875 41.7018C60.8875 41.1151 61.3839 40.6187 61.9706 40.6187C62.5573 40.6187 63.0538 41.1151 63.0538 41.7018C63.0538 42.2885 62.5573 42.785 61.9706 42.785Z" fill="#280074"/>
<path d="M61.9706 31.1408C61.3839 31.1408 60.8875 30.6444 60.8875 30.0577C60.8875 29.4709 61.3839 28.9745 61.9706 28.9745C62.5573 28.9745 63.0538 29.4709 63.0538 30.0577C63.0538 30.6895 62.5573 31.1408 61.9706 31.1408Z" fill="#280074"/>
<path d="M19.1401 31.6373H12.4154L10.204 30.1028H2.53149" stroke="#280074" stroke-miterlimit="10"/>
<path d="M19.1401 40.1674H14.0402L11.8287 41.7019H2.80225" stroke="#280074" stroke-miterlimit="10"/>
<path d="M19.1402 37.6851H12.6412L11.0616 39.1744H5.2395" stroke="#280074" stroke-miterlimit="10"/>
<path d="M19.1402 34.1196H12.6412L11.0616 32.6302H5.2395" stroke="#280074" stroke-miterlimit="10"/>
<path d="M19.1402 35.9249H6.90942" stroke="#280074" stroke-miterlimit="10"/>
<path d="M7.72184 36.8726C8.30856 36.8726 8.80501 36.3762 8.80501 35.7895C8.80501 35.2028 8.30856 34.7063 7.72184 34.7063C7.13513 34.7063 6.63867 35.2028 6.63867 35.7895C6.63867 36.4213 7.08999 36.8726 7.72184 36.8726Z" fill="#280074"/>
<path d="M4.69792 33.6231C5.28464 33.6231 5.78109 33.1267 5.78109 32.54C5.78109 31.9532 5.28464 31.4568 4.69792 31.4568C4.1112 31.4568 3.61475 31.9532 3.61475 32.54C3.61475 33.1718 4.1112 33.6231 4.69792 33.6231Z" fill="#280074"/>
<path d="M4.69792 40.2575C5.28464 40.2575 5.78109 39.7611 5.78109 39.1744C5.78109 38.5876 5.28464 38.0912 4.69792 38.0912C4.1112 38.0912 3.61475 38.5876 3.61475 39.1744C3.61475 39.7611 4.1112 40.2575 4.69792 40.2575Z" fill="#280074"/>
<path d="M2.03508 42.785C2.62179 42.785 3.11825 42.2885 3.11825 41.7018C3.11825 41.1151 2.62179 40.6187 2.03508 40.6187C1.44836 40.6187 0.951904 41.1151 0.951904 41.7018C0.997036 42.2885 1.44836 42.785 2.03508 42.785Z" fill="#280074"/>
<path d="M2.03508 31.1408C2.62179 31.1408 3.11825 30.6444 3.11825 30.0577C3.11825 29.4709 2.62179 28.9745 2.03508 28.9745C1.44836 28.9745 0.951904 29.4709 0.951904 30.0577C0.997036 30.6895 1.44836 31.1408 2.03508 31.1408Z" fill="#280074"/>
<path d="M44.6849 44.3646C44.6849 46.6663 42.8345 48.5167 40.5328 48.5167H23.6082C21.3065 48.5167 19.4561 46.6663 19.4561 44.3646V27.44C19.4561 25.1383 21.3065 23.2878 23.6082 23.2878H40.5328C42.8345 23.2878 44.6849 25.1383 44.6849 27.44V44.3646Z" fill="#4D0063" stroke="#280074" stroke-miterlimit="10"/>
<path d="M31.8674 23.2428H23.6082C21.3065 23.2428 19.4561 25.0932 19.4561 27.395V44.3195C19.4561 46.6213 21.3065 48.4717 23.6082 48.4717H31.9125V23.2428H31.8674Z" fill="#4D0063"/>
<path d="M38.2762 36.6922C37.8249 36.1055 37.0576 35.6993 36.0647 35.4285C36.7417 35.2028 37.2382 34.8869 37.5541 34.4807C38.0505 33.894 38.3213 33.1719 38.3213 32.3595C38.3213 31.3666 37.9603 30.5542 37.2382 29.8772C36.6966 29.3808 35.9293 29.0649 35.0267 28.9295V27.6658H33.4922V28.8843H31.9126V27.6658H30.3781V28.8843H26.0002V42.8753H30.3781V44.0939H31.9126V42.8753H33.4922V44.0939H35.0267V42.7399C35.1621 42.7399 35.2975 42.6948 35.4329 42.6948C36.155 42.6045 36.6966 42.424 37.0576 42.2435C37.6444 41.9275 38.0957 41.4311 38.4567 40.8895C38.7727 40.3028 38.9532 39.6709 38.9532 38.9488C38.9532 38.001 38.7275 37.2789 38.2762 36.6922ZM30.4232 31.7277H32.3188C32.9957 31.7277 33.4471 31.8631 33.7179 32.0887C33.9886 32.3144 34.124 32.6303 34.124 33.0365C34.124 33.4878 33.9886 33.8037 33.7179 34.0294C33.4471 34.2551 32.9957 34.3905 32.3188 34.3905H30.4232V31.7277ZM30.4232 39.8966V37.0533H32.6347C33.4019 37.0533 33.9435 37.1887 34.2143 37.4143C34.5302 37.6851 34.6656 38.001 34.6656 38.4072C34.6656 38.8586 34.5302 39.2196 34.2143 39.4904C33.8984 39.7612 33.4019 39.8966 32.6347 39.8966H30.4232Z" fill="#C08ACF"/>
</svg>
