<svg width="98" height="71" viewBox="0 0 98 71" fill="none" xmlns="http://www.w3.org/2000/svg">
<path d="M12.6621 48.1703L3.99316 56.3674V70.6977H12.6621V48.1703Z" fill="#C08ACF"/>
<path d="M21.331 42.8038H18.4414L12.6621 48.1703V70.6977H21.331V42.8038Z" fill="#280074"/>
<path d="M30 42.8038H21.3311V70.6977H30V42.8038Z" fill="#C08ACF"/>
<path d="M38.6098 42.8038H29.9409V70.6977H38.6098V42.8038Z" fill="#280074"/>
<path d="M47.2198 36.0221L40.0252 42.8039H38.6099V70.6978H47.2198V36.0221Z" fill="#C08ACF"/>
<path d="M55.8886 29.1813H54.4733L47.2197 36.022V70.6977H55.8886V29.1813Z" fill="#280074"/>
<path d="M64.5576 29.1813H55.8887V70.6977H64.5576V29.1813Z" fill="#C08ACF"/>
<path d="M73.2265 29.1813H64.5576V70.6977H73.2265V29.1813Z" fill="#280074"/>
<path d="M81.8364 23.7559L75.9982 29.1813H73.1675V70.6977H81.8364V23.7559Z" fill="#C08ACF"/>
<path d="M90.4464 15.6177L81.8364 23.7558V70.6977H90.4464V15.6177Z" fill="#280074"/>
<path d="M94.9282 11.4307L76.0571 29.1813H54.4732L40.0251 42.8039H18.4412L1.04443 59.1981" stroke="#4D0063" stroke-miterlimit="10"/>
<path d="M85.1387 13.1408L97.4049 9.13074L92.4512 20.1585L92.5692 13.7306L85.1387 13.1408Z" fill="#4D0063"/>
<path d="M37.4893 23.9917C36.9585 26.7634 36.015 29.653 35.1304 31.9529C35.6611 31.9529 36.6636 32.0119 37.1944 33.0734C37.9021 34.4888 39.2584 37.4963 40.143 39.4424H40.9096V31.0684C40.9096 26.1737 38.3738 24.4045 37.4893 23.9917Z" fill="#280074" stroke="#4D0063" stroke-miterlimit="10"/>
<path d="M20.8003 23.9917C21.3311 26.7634 22.2746 29.653 23.1592 31.9529C22.6284 31.9529 21.6259 32.0119 21.0952 33.0734C20.3875 34.4888 19.0311 37.4963 18.1466 39.4424H17.3799V31.0684C17.3209 26.1737 19.8567 24.4045 20.8003 23.9917Z" fill="#280074" stroke="#4D0063" stroke-miterlimit="10"/>
<path d="M20.8003 23.9917C21.3311 26.7634 22.2746 29.653 23.1592 31.9529C22.6284 31.9529 21.6259 32.0119 21.0952 33.0734C20.3875 34.4888 19.0311 37.4963 18.1466 39.4424H17.3799V31.0684C17.3209 26.1737 19.8567 24.4045 20.8003 23.9917Z" fill="#280074"/>
<path d="M27.464 2.11303C24.9872 5.29753 20.2104 12.2563 20.2104 20.3354C20.2104 27.3531 25.1051 36.9066 25.1051 36.9066H29.0563H32.9484C32.9484 36.9066 37.8431 27.3531 37.8431 20.3354C37.8431 12.3152 33.1254 5.3565 30.5896 2.172C29.705 0.992559 28.4076 0.992559 27.464 2.11303Z" fill="white" stroke="#4D0063" stroke-miterlimit="10"/>
<path d="M33.1253 36.9066H25.1641V38.7348H33.1253V36.9066Z" fill="#280074" stroke="#4D0063" stroke-miterlimit="10"/>
<path d="M33.1256 38.7347C33.1256 38.7347 37.1357 42.8038 35.6614 48.4652C35.6614 48.4652 34.7179 45.5755 33.4205 44.3371C33.4205 44.3371 34.8358 47.2267 32.1231 51.1779C29.4104 55.129 27.1694 57.311 28.5848 59.0801C28.5848 59.0801 22.8055 50.3523 25.6951 44.573C25.6951 44.573 23.4542 48.1703 23.5721 50.5881C23.5721 50.5881 21.9209 43.5115 25.1644 38.7937H33.1256V38.7347Z" fill="#EB5757" stroke="#4D0063" stroke-miterlimit="10"/>
<path d="M28.9975 55.4828V38.7347H25.1053C21.8618 43.5115 23.5131 50.5292 23.5131 50.5292C23.3361 48.1703 25.6361 44.514 25.6361 44.514C23.1002 49.5856 27.1693 56.8982 28.2898 58.6673C27.818 57.7828 28.2308 56.7802 28.9975 55.4828Z" fill="#EB5757"/>
<path d="M26.4616 38.7347C26.4616 38.7347 24.8694 40.0321 25.2822 42.6269C25.2822 42.6269 25.5181 41.7423 26.6975 41.2116C26.6975 41.2116 26.1078 45.9883 27.9949 48.5831C27.9949 48.5831 28.1129 44.6909 29.7051 44.1012C31.3563 43.5115 33.0076 41.3295 32.064 38.7347H26.4616Z" fill="#EB7A2C" stroke="#4D0063" stroke-miterlimit="10"/>
<path d="M28.9975 38.7347H26.4616C26.4616 38.7347 24.8694 40.0321 25.2822 42.6269C25.2822 42.6269 25.5181 41.7423 26.6975 41.2116C26.6975 41.2116 26.1078 45.9883 27.9949 48.5831C27.9949 48.5831 28.0539 45.9293 28.9975 44.6909V38.7347Z" fill="#EB7A2C"/>
<path d="M29.0563 1.28748C28.5255 1.34645 28.0538 1.58234 27.582 2.11309C25.0462 5.29759 20.2104 12.2563 20.2104 20.3355C20.2104 27.3532 25.1641 36.9067 25.1641 36.9067H29.0563V1.28748Z" fill="#C3C5CA"/>
<path d="M29.0564 6.65395C30.5897 6.65395 31.946 6.30011 33.1255 5.65142C32.2409 4.23609 31.3563 3.05664 30.6486 2.17206C29.7051 0.992615 28.4667 0.992615 27.5231 2.17206C26.8154 3.05664 25.9309 4.23609 24.9873 5.71039C26.1078 6.30011 27.5231 6.65395 29.0564 6.65395Z" fill="#EB5757" stroke="#4D0063" stroke-miterlimit="10"/>
<path d="M28.8204 1.28748C28.7614 1.28748 28.7614 1.28748 28.8204 1.28748C28.7614 1.28748 28.7614 1.28748 28.7024 1.28748H28.6435H28.5845H28.5255H28.4666H28.4076H28.3486H28.2896H28.2307H28.1717H28.1127H28.0538H27.9948C27.9948 1.28748 27.9358 1.28748 27.9358 1.34645C27.9358 1.34645 27.8768 1.34645 27.8768 1.40542C27.8768 1.40542 27.8768 1.40542 27.8179 1.46439C27.8179 1.46439 27.7589 1.46439 27.7589 1.52336C27.7589 1.52336 27.6999 1.52336 27.6999 1.58234C27.6999 1.58234 27.6409 1.58234 27.6409 1.64131C27.6409 1.64131 27.582 1.64131 27.582 1.70028C27.582 1.70028 27.523 1.70028 27.523 1.75925L27.464 1.81823C27.464 1.81823 27.464 1.81823 27.4051 1.8772L27.3461 1.93617C27.3461 1.93617 27.3461 1.93617 27.2871 1.99514L27.2281 2.05411C27.2281 2.05411 27.2281 2.05411 27.2281 2.11309C27.1692 2.17206 27.1692 2.17206 27.1102 2.23103C27.1102 2.23103 27.1102 2.23103 27.1102 2.29C27.1102 2.34898 27.0512 2.34898 27.0512 2.40795L26.9923 2.46692C26.9923 2.52589 26.9333 2.52589 26.9333 2.58486L26.8743 2.64384C26.8743 2.64384 26.8153 2.70281 26.8153 2.76178C26.8153 2.76178 26.7564 2.82075 26.7564 2.87972C26.7564 2.9387 26.6974 2.9387 26.6974 2.99767C26.6974 3.05664 26.6384 3.05664 26.6384 3.11561L26.5794 3.17459C26.5794 3.23356 26.5205 3.23356 26.5205 3.29253L26.4615 3.3515C26.4025 3.41047 26.4025 3.46945 26.3436 3.52842C26.3436 3.52842 26.3436 3.58739 26.2846 3.58739C26.2256 3.64636 26.1666 3.70534 26.1077 3.82328C26.1077 3.82328 26.1077 3.82328 26.1077 3.88225C26.0487 3.94122 26.0487 4.0002 25.9897 4.05917C26.1666 3.94122 26.1077 3.94122 26.1077 3.94122C26.0487 4.0002 26.0487 4.05917 25.9897 4.11814L25.9308 4.17711C25.8718 4.23609 25.8718 4.29506 25.8128 4.35403L25.7538 4.413C25.6949 4.47197 25.6949 4.53095 25.6359 4.58992L25.5769 4.64889C25.5179 4.70786 25.5179 4.76684 25.459 4.82581C25.459 4.82581 25.459 4.88478 25.4 4.88478C25.341 4.94375 25.341 5.00272 25.2821 5.0617C25.2821 5.0617 25.2821 5.0617 25.2821 5.12067C25.1641 5.29759 25.0462 5.4745 24.9282 5.65142C26.0487 6.24114 27.4051 6.59497 28.8794 6.65395V1.28748C28.8794 1.28748 28.8794 1.28748 28.8204 1.28748Z" fill="#EB5757"/>
<path d="M34.6588 19.097C34.6588 22.2225 32.123 24.6994 29.0565 24.6994C25.9309 24.6994 23.4541 22.1636 23.4541 19.097C23.4541 15.9715 25.9899 13.4947 29.0565 13.4947C32.123 13.4357 34.6588 15.9715 34.6588 19.097Z" fill="#EB5757" stroke="#4D0063" stroke-miterlimit="10"/>
<path d="M29.0563 13.4357C25.9308 13.4357 23.395 15.9715 23.395 19.038C23.395 22.1636 25.9308 24.6404 28.9974 24.6404V13.4357H29.0563Z" fill="#EB5757"/>
<path d="M33.1846 19.0971C33.1846 21.397 31.2975 23.2841 28.9976 23.2841C26.6977 23.2841 24.8105 21.397 24.8105 19.0971C24.8105 16.7971 26.6977 14.91 28.9976 14.91C31.3565 14.91 33.1846 16.7971 33.1846 19.0971Z" fill="#280074" stroke="#4D0063" stroke-miterlimit="10"/>
<path d="M29.0567 14.91C26.7567 14.91 24.8696 16.7971 24.8696 19.0971C24.8696 21.397 26.7567 23.2841 29.0567 23.2841V14.91Z" fill="#280074"/>
<path d="M28.7026 40.8578C28.7616 41.0936 28.7616 41.3885 28.8206 41.6244H29.4693C29.5282 41.3885 29.5872 41.0936 29.5872 40.8578C29.7052 40.1501 29.8231 39.3835 29.8821 38.6758C30 37.2015 30.059 35.7861 30.059 34.3118C30.059 32.8375 30 31.4222 29.8821 29.9479C29.8231 29.2402 29.7052 28.4736 29.5872 27.7659C29.5282 27.4711 29.4693 27.1762 29.4103 26.8813H28.8206C28.7616 27.1762 28.7026 27.4711 28.6437 27.7659C28.5257 28.4736 28.4078 29.2402 28.3488 29.9479C28.2308 31.4222 28.1719 32.8375 28.1719 34.3118C28.1719 35.7861 28.2308 37.2015 28.3488 38.6758C28.4667 39.4424 28.5847 40.1501 28.7026 40.8578Z" fill="#280074" stroke="#4D0063" stroke-miterlimit="10"/>
<path d="M28.9975 26.8813H28.8206C28.7616 27.1762 28.7026 27.4711 28.6437 27.7659C28.5257 28.4736 28.4078 29.2402 28.3488 29.9479C28.2308 31.4222 28.1719 32.8375 28.1719 34.3118C28.1719 35.7861 28.2308 37.2015 28.3488 38.6758C28.4078 39.3835 28.5257 40.1501 28.6437 40.8578C28.7026 41.0936 28.7026 41.3885 28.7616 41.6244H28.9385V26.8813H28.9975Z" fill="#280074"/>
</svg>
