<svg width="67" height="72" viewBox="0 0 67 72" fill="none" xmlns="http://www.w3.org/2000/svg">
<path d="M66.3397 49.6206C66.3397 61.2951 56.8777 70.7571 45.2032 70.7571C33.5287 70.7571 24.0667 61.2951 24.0667 49.6206C24.0667 37.9461 33.5287 28.4841 45.2032 28.4841C56.8777 28.437 66.3397 37.9461 66.3397 49.6206Z" fill="#C08ACF" stroke="#280074" stroke-miterlimit="10"/>
<path d="M62.5266 49.6206C62.5266 59.1767 54.7593 66.9441 45.2031 66.9441C35.647 66.9441 27.8796 59.1767 27.8796 49.6206C27.8796 40.0644 35.647 32.2971 45.2031 32.2971C54.7593 32.2971 62.5266 40.0174 62.5266 49.6206Z" fill="#C08ACF" stroke="#280074" stroke-miterlimit="10"/>
<path d="M45.1561 28.437C33.4816 28.4841 24.0667 37.9461 24.0667 49.6206C24.0667 61.2951 33.5287 70.7571 45.1561 70.7571V28.437Z" fill="#C08ACF"/>
<path d="M66.3397 49.6206C66.3397 61.2951 56.8777 70.7571 45.2032 70.7571C33.5287 70.7571 24.0667 61.2951 24.0667 49.6206C24.0667 37.9461 33.5287 28.4841 45.2032 28.4841C56.8777 28.437 66.3397 37.9461 66.3397 49.6206Z" stroke="#280074" stroke-miterlimit="10"/>
<path d="M62.5266 49.6206C62.5266 59.1767 54.7593 66.9441 45.2031 66.9441C35.647 66.9441 27.8796 59.1767 27.8796 49.6206C27.8796 40.0644 35.647 32.2971 45.2031 32.2971C54.7593 32.2971 62.5266 40.0174 62.5266 49.6206Z" stroke="#280074" stroke-miterlimit="10"/>
<path d="M44.45 28.437V32.2971" stroke="#280074" stroke-miterlimit="10"/>
<path d="M44.45 66.9441V70.7571" stroke="#280074" stroke-miterlimit="10"/>
<path d="M44.45 28.437V32.2971" stroke="#280074" stroke-miterlimit="10"/>
<path d="M44.45 66.9441V70.7571" stroke="#280074" stroke-miterlimit="10"/>
<path d="M66.9046 49.6206H63.0916" stroke="#280074" stroke-miterlimit="10"/>
<path d="M28.4446 49.6206H24.6316" stroke="#280074" stroke-miterlimit="10"/>
<path d="M66.9046 49.6206H63.0916" stroke="#280074" stroke-miterlimit="10"/>
<path d="M28.4446 49.6206H24.6316" stroke="#280074" stroke-miterlimit="10"/>
<path d="M60.7379 34.6509L58.0076 37.3812" stroke="#280074" stroke-miterlimit="10"/>
<path d="M33.5287 61.86L30.7983 64.5903" stroke="#280074" stroke-miterlimit="10"/>
<path d="M60.7379 34.6509L58.0076 37.3812" stroke="#280074" stroke-miterlimit="10"/>
<path d="M33.5287 61.86L30.7983 64.5903" stroke="#280074" stroke-miterlimit="10"/>
<path d="M60.7379 64.5903L58.0076 61.86" stroke="#280074" stroke-miterlimit="10"/>
<path d="M33.5287 37.3812L30.7983 34.6509" stroke="#280074" stroke-miterlimit="10"/>
<path d="M60.7379 64.5903L58.0076 61.86" stroke="#280074" stroke-miterlimit="10"/>
<path d="M33.5287 37.3812L30.7983 34.6509" stroke="#280074" stroke-miterlimit="10"/>
<path d="M56.4069 31.3086L54.4768 34.6038" stroke="#280074" stroke-miterlimit="10"/>
<path d="M37.0592 64.5903L35.1292 67.8855" stroke="#280074" stroke-miterlimit="10"/>
<path d="M56.4069 31.3086L54.4768 34.6038" stroke="#280074" stroke-miterlimit="10"/>
<path d="M37.0592 64.5903L35.1292 67.8855" stroke="#280074" stroke-miterlimit="10"/>
<path d="M64.0801 60.2123L60.7378 58.3293" stroke="#280074" stroke-miterlimit="10"/>
<path d="M30.7984 40.9118L27.4561 38.9817" stroke="#280074" stroke-miterlimit="10"/>
<path d="M64.0801 60.2123L60.7378 58.3293" stroke="#280074" stroke-miterlimit="10"/>
<path d="M30.7984 40.9118L27.4561 38.9817" stroke="#280074" stroke-miterlimit="10"/>
<path d="M65.6335 44.1599L61.9617 45.1485" stroke="#280074" stroke-miterlimit="10"/>
<path d="M28.4445 54.0455L24.7727 55.0341" stroke="#280074" stroke-miterlimit="10"/>
<path d="M65.6335 44.1599L61.9617 45.1485" stroke="#280074" stroke-miterlimit="10"/>
<path d="M28.4445 54.0455L24.7727 55.0341" stroke="#280074" stroke-miterlimit="10"/>
<path d="M49.8636 70.0511L48.875 66.3793" stroke="#280074" stroke-miterlimit="10"/>
<path d="M39.9779 32.8621L39.0364 29.1432" stroke="#280074" stroke-miterlimit="10"/>
<path d="M49.8636 70.0511L48.875 66.3793" stroke="#280074" stroke-miterlimit="10"/>
<path d="M39.9779 32.8621L39.0364 29.1432" stroke="#280074" stroke-miterlimit="10"/>
<path d="M51.6525 29.2843L50.5698 32.9561" stroke="#280074" stroke-miterlimit="10"/>
<path d="M40.9665 66.2379L39.8838 69.9568" stroke="#280074" stroke-miterlimit="10"/>
<path d="M51.6525 29.2843L50.5698 32.9561" stroke="#280074" stroke-miterlimit="10"/>
<path d="M40.9665 66.2379L39.8838 69.9568" stroke="#280074" stroke-miterlimit="10"/>
<path d="M66.1044 55.4579L62.4326 54.4222" stroke="#280074" stroke-miterlimit="10"/>
<path d="M29.1037 44.819L25.4319 43.7363" stroke="#280074" stroke-miterlimit="10"/>
<path d="M66.1044 55.4579L62.4326 54.4222" stroke="#280074" stroke-miterlimit="10"/>
<path d="M29.1037 44.819L25.4319 43.7363" stroke="#280074" stroke-miterlimit="10"/>
<path d="M63.7036 39.4054L60.3613 41.2413" stroke="#280074" stroke-miterlimit="10"/>
<path d="M30.0452 57.9999L26.7029 59.8358" stroke="#280074" stroke-miterlimit="10"/>
<path d="M63.7036 39.4054L60.3613 41.2413" stroke="#280074" stroke-miterlimit="10"/>
<path d="M30.0452 57.9999L26.7029 59.8358" stroke="#280074" stroke-miterlimit="10"/>
<path d="M55.9834 68.121L54.1475 64.7787" stroke="#280074" stroke-miterlimit="10"/>
<path d="M37.3889 34.4626L35.553 31.0732" stroke="#280074" stroke-miterlimit="10"/>
<path d="M55.9834 68.121L54.1475 64.7787" stroke="#280074" stroke-miterlimit="10"/>
<path d="M37.3889 34.4626L35.553 31.0732" stroke="#280074" stroke-miterlimit="10"/>
<path d="M30.2334 50.3738C30.2334 42.0887 36.918 35.4041 45.2031 35.4041" stroke="white" stroke-miterlimit="10" stroke-linecap="round" stroke-linejoin="round"/>
<path d="M47.4626 35.4041C47.4626 35.4041 50.2401 35.4982 52.9233 37.3812" stroke="white" stroke-miterlimit="10" stroke-linecap="round" stroke-linejoin="round"/>
<path d="M52.4527 51.3624C51.8408 50.6092 50.8993 50.0913 49.6753 49.8089C50.5227 49.5265 51.1346 49.1499 51.5583 48.632C52.2174 47.8788 52.5469 46.9844 52.5469 45.9488C52.5469 44.7248 52.0761 43.6892 51.1817 42.8419C50.4756 42.1828 49.5341 41.8062 48.4043 41.665V40.0645H46.4743V41.5708H44.4971V40.0645H42.5671V41.5708H37.0593V59.1768H42.5671V60.7302H44.4971V59.1768H46.4743V60.7302H48.4043V59.0355C48.5926 59.0355 48.7338 58.9885 48.9221 58.9885C49.8636 58.8472 50.5227 58.6589 50.9934 58.4236C51.7466 57.9999 52.3115 57.435 52.7352 56.6818C53.1589 55.9757 53.3942 55.1283 53.3942 54.2339C53.3472 53.01 53.0647 52.1156 52.4527 51.3624ZM42.5671 45.1014H44.9679C45.7681 45.1014 46.3801 45.2427 46.7096 45.5251C47.0392 45.8076 47.2274 46.2312 47.2274 46.7491C47.2274 47.3139 47.0392 47.7376 46.7096 48.0201C46.3801 48.3025 45.7681 48.4437 44.9208 48.4437H42.5671V45.1014ZM42.5671 55.3637V51.8331H45.3445C46.286 51.8331 46.945 51.9743 47.3216 52.3039C47.6982 52.6334 47.8865 53.0571 47.8865 53.5749C47.8865 54.1398 47.6982 54.5634 47.3216 54.893C46.945 55.2225 46.286 55.4108 45.3445 55.4108H42.5671V55.3637Z" fill="#280074"/>
<path d="M43.885 22.5527C43.885 34.3214 34.3288 43.8775 22.5602 43.8775C10.7915 43.8775 1.23535 34.3214 1.23535 22.5527C1.23535 10.7841 10.7915 1.22791 22.5602 1.22791C34.3288 1.22791 43.885 10.7841 43.885 22.5527Z" fill="#C08ACF" stroke="#280074" stroke-miterlimit="10"/>
<path d="M40.0249 22.5527C40.0249 32.203 32.2105 40.0174 22.5602 40.0174C12.9099 40.0174 5.09546 32.203 5.09546 22.5527C5.09546 12.9024 12.9099 5.08801 22.5602 5.08801C32.2105 5.08801 40.0249 12.9024 40.0249 22.5527Z" fill="#C08ACF" stroke="#280074" stroke-miterlimit="10"/>
<path d="M22.5131 1.22791C10.7444 1.27498 1.23535 10.7841 1.23535 22.5527C1.23535 34.3214 10.7444 43.8305 22.5131 43.8775V1.22791Z" fill="#C08ACF"/>
<path d="M43.885 22.5527C43.885 34.3214 34.3288 43.8775 22.5602 43.8775C10.7915 43.8775 1.23535 34.3214 1.23535 22.5527C1.23535 10.7841 10.7915 1.22791 22.5602 1.22791C34.3288 1.22791 43.885 10.7841 43.885 22.5527Z" stroke="#280074" stroke-miterlimit="10"/>
<path d="M40.0249 22.5527C40.0249 32.203 32.2105 40.0174 22.5602 40.0174C12.9099 40.0174 5.09546 32.203 5.09546 22.5527C5.09546 12.9024 12.9099 5.08801 22.5602 5.08801C32.2105 5.08801 40.0249 12.9024 40.0249 22.5527Z" stroke="#280074" stroke-miterlimit="10"/>
<path d="M21.8069 1.22791V5.08803" stroke="#280074" stroke-miterlimit="10"/>
<path d="M21.8069 40.0175V43.8776" stroke="#280074" stroke-miterlimit="10"/>
<path d="M21.8069 1.22791V5.08803" stroke="#280074" stroke-miterlimit="10"/>
<path d="M21.8069 40.0175V43.8776" stroke="#280074" stroke-miterlimit="10"/>
<path d="M44.45 22.5527H40.5898" stroke="#280074" stroke-miterlimit="10"/>
<path d="M5.66041 22.5527H1.80029" stroke="#280074" stroke-miterlimit="10"/>
<path d="M44.45 22.5527H40.5898" stroke="#280074" stroke-miterlimit="10"/>
<path d="M5.66041 22.5527H1.80029" stroke="#280074" stroke-miterlimit="10"/>
<path d="M38.1891 7.48877L35.4587 10.2191" stroke="#280074" stroke-miterlimit="10"/>
<path d="M10.7916 34.8862L8.06128 37.6166" stroke="#280074" stroke-miterlimit="10"/>
<path d="M38.1891 7.48877L35.4587 10.2191" stroke="#280074" stroke-miterlimit="10"/>
<path d="M10.7916 34.8862L8.06128 37.6166" stroke="#280074" stroke-miterlimit="10"/>
<path d="M38.1891 37.6166L35.4587 34.8862" stroke="#280074" stroke-miterlimit="10"/>
<path d="M10.7916 10.2191L8.06128 7.48877" stroke="#280074" stroke-miterlimit="10"/>
<path d="M38.1891 37.6166L35.4587 34.8862" stroke="#280074" stroke-miterlimit="10"/>
<path d="M10.7916 10.2191L8.06128 7.48877" stroke="#280074" stroke-miterlimit="10"/>
<path d="M33.8112 4.09949L31.8811 7.44179" stroke="#280074" stroke-miterlimit="10"/>
<path d="M14.3693 37.6637L12.4392 40.9589" stroke="#280074" stroke-miterlimit="10"/>
<path d="M33.8112 4.09949L31.8811 7.44179" stroke="#280074" stroke-miterlimit="10"/>
<path d="M14.3693 37.6637L12.4392 40.9589" stroke="#280074" stroke-miterlimit="10"/>
<path d="M41.5784 33.2387L38.2361 31.3086" stroke="#280074" stroke-miterlimit="10"/>
<path d="M8.01417 13.7968L4.67188 11.8197" stroke="#280074" stroke-miterlimit="10"/>
<path d="M41.5784 33.2387L38.2361 31.3086" stroke="#280074" stroke-miterlimit="10"/>
<path d="M8.01417 13.7968L4.67188 11.8197" stroke="#280074" stroke-miterlimit="10"/>
<path d="M43.1317 17.092L39.4128 18.0806" stroke="#280074" stroke-miterlimit="10"/>
<path d="M5.6603 27.0248L1.94141 28.0133" stroke="#280074" stroke-miterlimit="10"/>
<path d="M43.1317 17.092L39.4128 18.0806" stroke="#280074" stroke-miterlimit="10"/>
<path d="M5.6603 27.0248L1.94141 28.0133" stroke="#280074" stroke-miterlimit="10"/>
<path d="M27.2676 43.1244L26.2791 39.4055" stroke="#280074" stroke-miterlimit="10"/>
<path d="M17.2879 5.65298L16.2993 1.93408" stroke="#280074" stroke-miterlimit="10"/>
<path d="M27.2676 43.1244L26.2791 39.4055" stroke="#280074" stroke-miterlimit="10"/>
<path d="M17.2879 5.65298L16.2993 1.93408" stroke="#280074" stroke-miterlimit="10"/>
<path d="M29.0563 2.0752L27.9736 5.74702" stroke="#280074" stroke-miterlimit="10"/>
<path d="M18.2763 39.3113L17.1936 43.0302" stroke="#280074" stroke-miterlimit="10"/>
<path d="M29.0563 2.0752L27.9736 5.74702" stroke="#280074" stroke-miterlimit="10"/>
<path d="M18.2763 39.3113L17.1936 43.0302" stroke="#280074" stroke-miterlimit="10"/>
<path d="M43.6027 28.437L39.8838 27.4014" stroke="#280074" stroke-miterlimit="10"/>
<path d="M6.3666 17.7041L2.64771 16.6213" stroke="#280074" stroke-miterlimit="10"/>
<path d="M43.6027 28.437L39.8838 27.4014" stroke="#280074" stroke-miterlimit="10"/>
<path d="M6.3666 17.7041L2.64771 16.6213" stroke="#280074" stroke-miterlimit="10"/>
<path d="M41.2019 12.2434L37.8125 14.1264" stroke="#280074" stroke-miterlimit="10"/>
<path d="M7.26096 30.9791L3.87158 32.8621" stroke="#280074" stroke-miterlimit="10"/>
<path d="M41.2019 12.2434L37.8125 14.1264" stroke="#280074" stroke-miterlimit="10"/>
<path d="M7.26096 30.9791L3.87158 32.8621" stroke="#280074" stroke-miterlimit="10"/>
<path d="M33.4343 41.1943L31.5513 37.8049" stroke="#280074" stroke-miterlimit="10"/>
<path d="M14.6987 7.25351L12.8157 3.86414" stroke="#280074" stroke-miterlimit="10"/>
<path d="M33.4343 41.1943L31.5513 37.8049" stroke="#280074" stroke-miterlimit="10"/>
<path d="M14.6987 7.25351L12.8157 3.86414" stroke="#280074" stroke-miterlimit="10"/>
<path d="M7.44922 23.306C7.44922 14.9737 14.1809 8.24207 22.5131 8.24207" stroke="white" stroke-miterlimit="10" stroke-linecap="round" stroke-linejoin="round"/>
<path d="M24.8198 8.24207C24.8198 8.24207 27.6443 8.33622 30.3276 10.2192" stroke="white" stroke-miterlimit="10" stroke-linecap="round" stroke-linejoin="round"/>
<path d="M29.9038 18.4572L25.1492 19.2104C24.9138 18.5984 24.6785 18.1748 24.4902 17.9394C24.3019 17.704 23.9723 17.4686 23.5487 17.2333V20.9522C26.1378 21.6583 27.8795 22.3644 28.7269 23.1647C29.8567 24.2003 30.4686 25.5184 30.4686 27.0719C30.4686 28.0134 30.2803 28.8607 29.8567 29.6139C29.433 30.3671 28.9152 31.0261 28.2561 31.544C27.5971 32.0618 26.938 32.4384 26.1849 32.6738C25.4787 32.9091 24.5843 33.0503 23.5016 33.0974V35.4982H21.6186V33.0974C20.3476 33.0033 19.359 32.7679 18.5588 32.4855C17.7585 32.203 17.0994 31.7793 16.5346 31.2615C16.0638 30.7437 15.5931 30.1788 15.3106 29.5668C15.0282 28.9549 14.7928 28.2487 14.6045 27.4014L19.7827 26.7894C19.9239 27.6368 20.1593 28.2487 20.3947 28.6253C20.6771 29.0019 21.1008 29.3315 21.6657 29.6139V25.0947C19.9239 24.624 18.7 24.2003 17.9939 23.8708C17.2877 23.5413 16.6758 22.9764 16.1109 22.1761C15.5931 21.4229 15.3106 20.4814 15.3106 19.3516C15.3106 17.8452 15.8284 16.5742 16.9111 15.5386C17.9939 14.5029 19.5473 13.938 21.6657 13.8439V12.5729H23.5487V13.8439C25.4787 13.9851 26.938 14.4088 27.9266 15.2091C28.9623 16.0093 29.6213 17.092 29.9038 18.4572ZM21.7128 17.1391C21.1479 17.3274 20.7713 17.5628 20.583 17.7982C20.3476 18.0806 20.2535 18.3631 20.2535 18.7397C20.2535 19.1163 20.3476 19.4458 20.583 19.7282C20.8183 20.0107 21.1949 20.246 21.7128 20.4343V17.1391ZM23.5487 29.7551C24.2548 29.6139 24.8197 29.3315 25.1492 28.9549C25.4787 28.5783 25.667 28.1546 25.667 27.6838C25.667 27.2602 25.5258 26.9306 25.2434 26.554C24.9609 26.2245 24.396 25.895 23.5957 25.6126V29.7551H23.5487Z" fill="#280074"/>
</svg>
