<svg width="33" height="33" viewBox="0 0 33 33" fill="none" xmlns="http://www.w3.org/2000/svg">
<rect x="0.408203" y="0.10791" width="32" height="32" rx="10" fill="#EB5757"/>
<path d="M22.0759 12.3972C21.5906 12.6203 21.0756 12.7669 20.5483 12.8321C21.1039 12.4871 21.52 11.9456 21.7195 11.3077C21.196 11.6293 20.623 11.8553 20.0254 11.9756C19.6604 11.5736 19.187 11.2944 18.6667 11.1741C18.1464 11.0539 17.6032 11.0982 17.1075 11.3013C16.6118 11.5044 16.1865 11.8569 15.8868 12.3131C15.5871 12.7694 15.4268 13.3083 15.4267 13.8599C15.427 14.0709 15.4498 14.2812 15.4948 14.487C14.4368 14.4325 13.4016 14.1483 12.4566 13.6528C11.5116 13.1574 10.6779 12.4618 10.0096 11.6112C9.66915 12.2169 9.56469 12.9341 9.71755 13.6167C9.8704 14.2993 10.2691 14.8959 10.8323 15.2848C10.4105 15.2722 9.99784 15.1543 9.62952 14.9412V14.9746C9.62981 15.6099 9.84188 16.2256 10.2299 16.7179C10.618 17.2101 11.1583 17.5488 11.7596 17.6767C11.5312 17.7389 11.2959 17.7704 11.0596 17.7702C10.8912 17.7705 10.7231 17.7543 10.5576 17.722C10.7282 18.2686 11.0593 18.7465 11.5047 19.0893C11.9501 19.4321 12.4877 19.6226 13.0427 19.6345C12.0994 20.3983 10.9356 20.8122 9.73782 20.81C9.5267 20.8098 9.31575 20.7974 9.10596 20.7729C10.2494 21.5306 11.5687 21.956 12.9257 22.0045C14.2826 22.053 15.6272 21.7228 16.8184 21.0485C18.0096 20.3743 19.0036 19.3808 19.696 18.1723C20.3885 16.9638 20.754 15.5847 20.7541 14.1798L20.7462 13.8236C21.2688 13.4349 21.7195 12.9519 22.0767 12.3979L22.0759 12.3972Z" fill="white"/>
</svg>
