<svg width="95" height="126" viewBox="0 0 95 126" fill="none" xmlns="http://www.w3.org/2000/svg">
<path opacity="0.2" d="M37.4809 81.9631L-1.42285 16.303L55.339 49.9429L37.4809 81.9631Z" stroke="#EB5757" stroke-miterlimit="10"/>
<path opacity="0.2" d="M35.5537 83.468L-1.3542 81.6691L-3.32039 17.8406" stroke="#EB5757" stroke-miterlimit="10"/>
<path opacity="0.2" d="M-1.96276 82.0226L17.9462 52.4212L55.8235 49.9322" stroke="#EB5757" stroke-miterlimit="10"/>
<path opacity="0.2" d="M1.03827 84.5614L38.5983 86.474L56.032 53.2585L52.7069 110.605L1.03827 84.5614Z" stroke="#EB5757" stroke-miterlimit="10"/>
<path opacity="0.2" d="M38.74 86.6478L51.8931 109.457" stroke="#EB5757" stroke-miterlimit="10"/>
<path opacity="0.2" d="M-1.23099 81.201C-1.42898 80.8684 -1.71305 80.5938 -2.04724 80.4122C-2.38144 80.2305 -2.75068 80.1499 -3.10819 80.1806C-3.4657 80.2112 -3.79538 80.3518 -4.05544 80.5844C-4.31549 80.8171 -4.4942 81.1313 -4.56895 81.4873C-4.6437 81.8433 -4.61111 82.225 -4.47531 82.5842C-4.33951 82.9433 -4.10662 83.2636 -3.80614 83.5045C-3.50566 83.7455 -3.15111 83.8962 -2.78746 83.9375C-2.4238 83.9788 -2.0674 83.909 -1.76342 83.7368C-1.56149 83.624 -1.38747 83.4688 -1.25134 83.2801C-1.1152 83.0914 -1.01965 82.8729 -0.970168 82.6373C-0.920688 82.4016 -0.918258 82.1534 -0.96302 81.9069C-1.00778 81.6604 -1.09885 81.4205 -1.23099 81.201V81.201Z" stroke="#EB5757" stroke-miterlimit="10"/>
<path opacity="0.2" d="M36.7051 80.5066C36.507 80.1774 36.224 79.9063 35.8918 79.7273C35.5596 79.5484 35.1931 79.4697 34.8385 79.5011C34.4839 79.5325 34.1572 79.6727 33.8994 79.9039C33.6417 80.1352 33.4646 80.4471 33.3904 80.8004C33.3163 81.1536 33.3483 81.5324 33.4826 81.8889C33.617 82.2454 33.8475 82.5637 34.1451 82.8035C34.4427 83.0433 34.7941 83.194 35.155 83.2365C35.5158 83.2791 35.8699 83.2115 36.1726 83.0424C36.3746 82.9296 36.5486 82.7744 36.6847 82.5857C36.8208 82.397 36.9164 82.1786 36.9659 81.9429C37.0154 81.7072 37.0178 81.459 36.9731 81.2125C36.9283 80.9661 36.8372 80.7261 36.7051 80.5066V80.5066Z" stroke="#EB5757" stroke-miterlimit="10"/>
<path opacity="0.2" d="M57.3559 47.9366C57.1593 47.6027 56.8761 47.3265 56.5422 47.1431C56.2083 46.9597 55.8388 46.8773 55.4806 46.9065C55.1224 46.9357 54.7918 47.0751 54.5305 47.307C54.2693 47.5389 54.0894 47.8529 54.0136 48.209C53.9378 48.5651 53.9696 48.9473 54.1048 49.3071C54.2401 49.6668 54.4728 49.9879 54.7734 50.2295C55.0739 50.471 55.4287 50.6223 55.7928 50.6639C56.1569 50.7056 56.5138 50.6358 56.8181 50.4634C57.2245 50.2363 57.5095 49.8426 57.6103 49.3687C57.7112 48.8948 57.6197 48.3797 57.3559 47.9366V47.9366Z" stroke="#EB5757" stroke-miterlimit="10"/>
<path opacity="0.2" d="M0.227999 17.471C0.0316598 17.1375 -0.251137 16.8615 -0.584551 16.6781C-0.917966 16.4947 -1.28697 16.4121 -1.64483 16.4407C-2.00269 16.4694 -2.3333 16.608 -2.59472 16.8391C-2.85613 17.0701 -3.0366 17.3832 -3.11327 17.7386C-3.18993 18.094 -3.15935 18.4757 -3.02537 18.8354C-2.89139 19.1951 -2.66005 19.5165 -2.36067 19.7589C-2.0613 20.0014 -1.70737 20.154 -1.34374 20.1973C-0.980108 20.2407 -0.623144 20.1728 -0.31809 20.0024C0.0890724 19.775 0.375057 19.381 0.477387 18.9067C0.579717 18.4323 0.490058 17.9162 0.227999 17.471V17.471Z" stroke="#EB5757" stroke-miterlimit="10"/>
<path opacity="0.2" d="M39.2173 85.0843C39.0195 84.752 38.7359 84.4777 38.4022 84.2961C38.0685 84.1144 37.6997 84.0335 37.3425 84.0636C36.9853 84.0938 36.6557 84.2335 36.3955 84.4653C36.1352 84.6971 35.9559 85.0104 35.8803 85.3657C35.8047 85.721 35.8361 86.1023 35.9706 86.4613C36.1051 86.8204 36.3367 87.1411 36.636 87.3829C36.9353 87.6247 37.2889 87.7767 37.6522 87.8198C38.0154 87.8628 38.3719 87.7949 38.6766 87.6247C38.8799 87.5127 39.0553 87.3579 39.1927 87.1692C39.3302 86.9805 39.4268 86.7617 39.4771 86.5254C39.5274 86.2892 39.5303 86.0401 39.4857 85.7928C39.4411 85.5454 39.3499 85.3046 39.2173 85.0843V85.0843Z" stroke="#EB5757" stroke-miterlimit="10"/>
<path opacity="0.2" d="M20.2095 52.1221C20.0117 51.7899 19.7281 51.5156 19.3943 51.3339C19.0606 51.1522 18.6919 51.0713 18.3347 51.1015C17.9775 51.1316 17.6479 51.2714 17.3877 51.5032C17.1274 51.7349 16.9481 52.0483 16.8725 52.4035C16.7969 52.7588 16.8283 53.1401 16.9628 53.4992C17.0973 53.8582 17.3289 54.1789 17.6282 54.4207C17.9275 54.6625 18.2811 54.8146 18.6443 54.8576C19.0076 54.9006 19.364 54.8328 19.6687 54.6625C19.8721 54.5505 20.0475 54.3957 20.1849 54.207C20.3223 54.0183 20.419 53.7995 20.4693 53.5633C20.5196 53.327 20.5225 53.078 20.4779 52.8306C20.4333 52.5832 20.3421 52.3424 20.2095 52.1221V52.1221Z" stroke="#EB5757" stroke-miterlimit="10"/>
<path opacity="0.2" d="M59.4023 52.2269C59.2031 51.8959 58.9186 51.6233 58.5846 51.4434C58.2506 51.2635 57.8821 51.1843 57.5256 51.2159C57.1691 51.2475 56.8406 51.3884 56.5815 51.6209C56.3224 51.8533 56.1443 52.167 56.0697 52.5222C55.9951 52.8773 56.0274 53.2582 56.1624 53.6166C56.2975 53.975 56.5292 54.295 56.8284 54.5361C57.1277 54.7773 57.481 54.9288 57.8438 54.9715C58.2066 55.0143 58.5626 54.9463 58.867 54.7763C59.07 54.6629 59.2449 54.5069 59.3818 54.3172C59.5187 54.1275 59.6147 53.9078 59.6645 53.6709C59.7142 53.434 59.7167 53.1845 59.6717 52.9366C59.6267 52.6888 59.5351 52.4476 59.4023 52.2269Z" stroke="#EB5757" stroke-miterlimit="10"/>
<path opacity="0.2" d="M53.2536 108.724C53.057 108.39 52.7738 108.114 52.4399 107.931C52.106 107.747 51.7365 107.665 51.3783 107.694C51.0202 107.723 50.6895 107.863 50.4283 108.094C50.167 108.326 49.9871 108.64 49.9113 108.996C49.8355 109.353 49.8673 109.735 50.0026 110.095C50.1378 110.454 50.3705 110.775 50.6711 111.017C50.9716 111.258 51.3265 111.41 51.6905 111.451C52.0546 111.493 52.4115 111.423 52.7158 111.251C53.1222 111.024 53.4072 110.63 53.508 110.156C53.6089 109.682 53.5174 109.167 53.2536 108.724V108.724Z" stroke="#EB5757" stroke-miterlimit="10"/>
<path opacity="0.2" d="M2.12132 85.5122C1.92322 85.183 1.64023 84.9119 1.30803 84.7329C0.975837 84.554 0.609327 84.4753 0.254748 84.5067C-0.0998313 84.5381 -0.426604 84.6783 -0.684318 84.9095C-0.942031 85.1408 -1.11913 85.4527 -1.19331 85.8059C-1.26748 86.1592 -1.23539 86.538 -1.10108 86.8945C-0.966777 87.251 -0.736287 87.5693 -0.438666 87.8091C-0.141044 88.0489 0.210374 88.1996 0.571218 88.2421C0.932062 88.2846 1.28618 88.2171 1.58889 88.048C1.79082 87.9352 1.96484 87.78 2.10098 87.5913C2.23711 87.4026 2.33266 87.1842 2.38214 86.9485C2.43162 86.7128 2.43405 86.4646 2.38929 86.2181C2.34453 85.9716 2.25346 85.7317 2.12132 85.5122V85.5122Z" stroke="#EB5757" stroke-miterlimit="10"/>
</svg>
