<svg width="124" height="31" viewBox="0 0 124 31" fill="none" xmlns="http://www.w3.org/2000/svg">
<path d="M1 28.4293L1.60241 28.6685" stroke="#1AFF7C" stroke-width="1.5" stroke-miterlimit="10" stroke-linecap="round"/>
<path d="M1.60254 28.6684L2.20495 28.6253" stroke="#1AFF7C" stroke-width="1.5" stroke-miterlimit="10" stroke-linecap="round"/>
<path d="M2.20508 28.6252L2.80749 27.8895" stroke="#1AFF7C" stroke-width="1.5" stroke-miterlimit="10" stroke-linecap="round"/>
<path d="M2.80713 27.8895L3.40954 27.9175" stroke="#1AFF7C" stroke-width="1.5" stroke-miterlimit="10" stroke-linecap="round"/>
<path d="M3.40967 27.9177L4.01208 27.7615" stroke="#1AFF7C" stroke-width="1.5" stroke-miterlimit="10" stroke-linecap="round"/>
<path d="M4.01221 27.7615L4.61462 28.182" stroke="#1AFF7C" stroke-width="1.5" stroke-miterlimit="10" stroke-linecap="round"/>
<path d="M4.61426 28.1819L5.21667 28.4217" stroke="#1AFF7C" stroke-width="1.5" stroke-miterlimit="10" stroke-linecap="round"/>
<path d="M5.2168 28.4218L5.81921 27.8367" stroke="#1AFF7C" stroke-width="1.5" stroke-miterlimit="10" stroke-linecap="round"/>
<path d="M5.81934 27.8367L6.42175 24.8887" stroke="#1AFF7C" stroke-width="1.5" stroke-miterlimit="10" stroke-linecap="round"/>
<path d="M6.42188 24.8887L7.02428 24.9242" stroke="#1AFF7C" stroke-width="1.5" stroke-miterlimit="10" stroke-linecap="round"/>
<path d="M7.02393 24.9241L7.62634 25.0654" stroke="#1AFF7C" stroke-width="1.5" stroke-miterlimit="10" stroke-linecap="round"/>
<path d="M7.62646 25.0655L8.22887 26.0978" stroke="#1AFF7C" stroke-width="1.5" stroke-miterlimit="10" stroke-linecap="round"/>
<path d="M8.229 26.0977L8.83141 28.6806" stroke="#1AFF7C" stroke-width="1.5" stroke-miterlimit="10" stroke-linecap="round"/>
<path d="M8.83105 28.6807L9.43346 27.9654" stroke="#1AFF7C" stroke-width="1.5" stroke-miterlimit="10" stroke-linecap="round"/>
<path d="M9.43359 27.9654L10.036 27.2408" stroke="#1AFF7C" stroke-width="1.5" stroke-miterlimit="10" stroke-linecap="round"/>
<path d="M10.0361 27.2408L10.6385 28.0966" stroke="#1AFF7C" stroke-width="1.5" stroke-miterlimit="10" stroke-linecap="round"/>
<path d="M10.6387 28.0965L11.2411 28.5867" stroke="#1AFF7C" stroke-width="1.5" stroke-miterlimit="10" stroke-linecap="round"/>
<path d="M11.2412 28.5867L11.8436 29.1157" stroke="#1AFF7C" stroke-width="1.5" stroke-miterlimit="10" stroke-linecap="round"/>
<path d="M11.8433 29.1158L12.4457 29.5897" stroke="#1AFF7C" stroke-width="1.5" stroke-miterlimit="10" stroke-linecap="round"/>
<path d="M12.4458 29.5897L13.0482 28.7606" stroke="#1AFF7C" stroke-width="1.5" stroke-miterlimit="10" stroke-linecap="round"/>
<path d="M13.0483 28.7605L13.6507 28.5858" stroke="#1AFF7C" stroke-width="1.5" stroke-miterlimit="10" stroke-linecap="round"/>
<path d="M13.6504 28.5858L14.2528 28.7862" stroke="#1AFF7C" stroke-width="1.5" stroke-miterlimit="10" stroke-linecap="round"/>
<path d="M14.2529 28.7864L14.8553 28.6758" stroke="#1AFF7C" stroke-width="1.5" stroke-miterlimit="10" stroke-linecap="round"/>
<path d="M14.8555 28.6758L15.4579 29.2952" stroke="#1AFF7C" stroke-width="1.5" stroke-miterlimit="10" stroke-linecap="round"/>
<path d="M15.458 29.2952L16.0604 28.8824" stroke="#1AFF7C" stroke-width="1.5" stroke-miterlimit="10" stroke-linecap="round"/>
<path d="M16.0605 28.8824L16.663 29.1013" stroke="#1AFF7C" stroke-width="1.5" stroke-miterlimit="10" stroke-linecap="round"/>
<path d="M16.6626 29.1011L17.265 29.3076" stroke="#1AFF7C" stroke-width="1.5" stroke-miterlimit="10" stroke-linecap="round"/>
<path d="M17.2651 29.3076L17.8675 28.825" stroke="#1AFF7C" stroke-width="1.5" stroke-miterlimit="10" stroke-linecap="round"/>
<path d="M17.8672 28.8252L18.4696 28.0909" stroke="#1AFF7C" stroke-width="1.5" stroke-miterlimit="10" stroke-linecap="round"/>
<path d="M18.4697 28.0909L19.0721 30.1717" stroke="#1AFF7C" stroke-width="1.5" stroke-miterlimit="10" stroke-linecap="round"/>
<path d="M19.0723 30.1715L19.6747 29.4114" stroke="#1AFF7C" stroke-width="1.5" stroke-miterlimit="10" stroke-linecap="round"/>
<path d="M19.6748 29.4116L20.2772 25.723" stroke="#1AFF7C" stroke-width="1.5" stroke-miterlimit="10" stroke-linecap="round"/>
<path d="M20.2773 25.7229L20.8798 23.3367" stroke="#1AFF7C" stroke-width="1.5" stroke-miterlimit="10" stroke-linecap="round"/>
<path d="M20.8794 23.3368L21.4818 23.2984" stroke="#1AFF7C" stroke-width="1.5" stroke-miterlimit="10" stroke-linecap="round"/>
<path d="M21.4819 23.2984L22.0843 23.3625" stroke="#1AFF7C" stroke-width="1.5" stroke-miterlimit="10" stroke-linecap="round"/>
<path d="M22.0845 23.3624L22.6869 24.477" stroke="#1AFF7C" stroke-width="1.5" stroke-miterlimit="10" stroke-linecap="round"/>
<path d="M22.6865 24.4771L23.2889 24.9068" stroke="#1AFF7C" stroke-width="1.5" stroke-miterlimit="10" stroke-linecap="round"/>
<path d="M23.2891 24.9069L23.8915 24.8179" stroke="#1AFF7C" stroke-width="1.5" stroke-miterlimit="10" stroke-linecap="round"/>
<path d="M23.8916 24.8179L24.494 24.0728" stroke="#1AFF7C" stroke-width="1.5" stroke-miterlimit="10" stroke-linecap="round"/>
<path d="M24.4941 24.0728L25.0966 22.5921" stroke="#1AFF7C" stroke-width="1.5" stroke-miterlimit="10" stroke-linecap="round"/>
<path d="M25.0967 22.5921L25.6991 23.5304" stroke="#1AFF7C" stroke-width="1.5" stroke-miterlimit="10" stroke-linecap="round"/>
<path d="M25.6987 23.5303L26.3011 23.3773" stroke="#1AFF7C" stroke-width="1.5" stroke-miterlimit="10" stroke-linecap="round"/>
<path d="M26.3013 23.3773L26.9037 23.5906" stroke="#1AFF7C" stroke-width="1.5" stroke-miterlimit="10" stroke-linecap="round"/>
<path d="M26.9033 23.5906L27.5057 23.9692" stroke="#1AFF7C" stroke-width="1.5" stroke-miterlimit="10" stroke-linecap="round"/>
<path d="M27.5059 23.9692L28.1083 23.2872" stroke="#1AFF7C" stroke-width="1.5" stroke-miterlimit="10" stroke-linecap="round"/>
<path d="M28.1084 23.2872L28.7108 23.3383" stroke="#1AFF7C" stroke-width="1.5" stroke-miterlimit="10" stroke-linecap="round"/>
<path d="M28.7109 23.3382L29.3133 22.6561" stroke="#1AFF7C" stroke-width="1.5" stroke-miterlimit="10" stroke-linecap="round"/>
<path d="M29.3135 22.656L29.9159 21.3892" stroke="#1AFF7C" stroke-width="1.5" stroke-miterlimit="10" stroke-linecap="round"/>
<path d="M29.9155 21.3893L30.5179 20.0413" stroke="#1AFF7C" stroke-width="1.5" stroke-miterlimit="10" stroke-linecap="round"/>
<path d="M30.5181 20.0413L31.1205 21.024" stroke="#1AFF7C" stroke-width="1.5" stroke-miterlimit="10" stroke-linecap="round"/>
<path d="M31.1206 21.024L31.723 21.2617" stroke="#1AFF7C" stroke-width="1.5" stroke-miterlimit="10" stroke-linecap="round"/>
<path d="M31.7227 21.2616L32.3251 21.0245" stroke="#1AFF7C" stroke-width="1.5" stroke-miterlimit="10" stroke-linecap="round"/>
<path d="M32.3252 21.0245L32.9276 20.2567" stroke="#1AFF7C" stroke-width="1.5" stroke-miterlimit="10" stroke-linecap="round"/>
<path d="M32.9277 20.2567L33.5301 21.3803" stroke="#1AFF7C" stroke-width="1.5" stroke-miterlimit="10" stroke-linecap="round"/>
<path d="M33.5303 21.3802L34.1327 21.8304" stroke="#1AFF7C" stroke-width="1.5" stroke-miterlimit="10" stroke-linecap="round"/>
<path d="M34.1328 21.8304L34.7352 20.6871" stroke="#1AFF7C" stroke-width="1.5" stroke-miterlimit="10" stroke-linecap="round"/>
<path d="M34.7349 20.687L35.3373 20.3262" stroke="#1AFF7C" stroke-width="1.5" stroke-miterlimit="10" stroke-linecap="round"/>
<path d="M35.3374 20.3262L35.9398 18.7762" stroke="#1AFF7C" stroke-width="1.5" stroke-miterlimit="10" stroke-linecap="round"/>
<path d="M35.9395 18.7763L36.5419 16.5443" stroke="#1AFF7C" stroke-width="1.5" stroke-miterlimit="10" stroke-linecap="round"/>
<path d="M36.542 16.5442L37.1444 16.2244" stroke="#1AFF7C" stroke-width="1.5" stroke-miterlimit="10" stroke-linecap="round"/>
<path d="M37.1445 16.2245L37.7469 14.9307" stroke="#1AFF7C" stroke-width="1.5" stroke-miterlimit="10" stroke-linecap="round"/>
<path d="M37.7471 14.9307L38.3495 16.3537" stroke="#1AFF7C" stroke-width="1.5" stroke-miterlimit="10" stroke-linecap="round"/>
<path d="M38.3496 16.3537L38.952 15.7379" stroke="#1AFF7C" stroke-width="1.5" stroke-miterlimit="10" stroke-linecap="round"/>
<path d="M38.9517 15.7379L39.5541 16.444" stroke="#1AFF7C" stroke-width="1.5" stroke-miterlimit="10" stroke-linecap="round"/>
<path d="M39.5542 16.4442L40.1566 16.6008" stroke="#1AFF7C" stroke-width="1.5" stroke-miterlimit="10" stroke-linecap="round"/>
<path d="M40.1567 16.6007L40.7591 15.5147" stroke="#1AFF7C" stroke-width="1.5" stroke-miterlimit="10" stroke-linecap="round"/>
<path d="M40.7588 15.5147L41.3612 15.5705" stroke="#1AFF7C" stroke-width="1.5" stroke-miterlimit="10" stroke-linecap="round"/>
<path d="M41.3613 15.5706L41.9637 16.3488" stroke="#1AFF7C" stroke-width="1.5" stroke-miterlimit="10" stroke-linecap="round"/>
<path d="M41.9639 16.3487L42.5663 15.7579" stroke="#1AFF7C" stroke-width="1.5" stroke-miterlimit="10" stroke-linecap="round"/>
<path d="M42.5664 15.758L43.1688 15.5501" stroke="#1AFF7C" stroke-width="1.5" stroke-miterlimit="10" stroke-linecap="round"/>
<path d="M43.1689 15.5501L43.7714 15.8803" stroke="#1AFF7C" stroke-width="1.5" stroke-miterlimit="10" stroke-linecap="round"/>
<path d="M43.771 15.8802L44.3734 18.5396" stroke="#1AFF7C" stroke-width="1.5" stroke-miterlimit="10" stroke-linecap="round"/>
<path d="M44.3735 18.5397L44.9759 18.5067" stroke="#1AFF7C" stroke-width="1.5" stroke-miterlimit="10" stroke-linecap="round"/>
<path d="M44.9761 18.5065L45.5785 16.6844" stroke="#1AFF7C" stroke-width="1.5" stroke-miterlimit="10" stroke-linecap="round"/>
<path d="M45.5781 16.6846L46.1805 16.1063" stroke="#1AFF7C" stroke-width="1.5" stroke-miterlimit="10" stroke-linecap="round"/>
<path d="M46.1807 16.1062L46.7831 11.1373" stroke="#1AFF7C" stroke-width="1.5" stroke-miterlimit="10" stroke-linecap="round"/>
<path d="M46.7832 11.1371L47.3856 7.11261" stroke="#1AFF7C" stroke-width="1.5" stroke-miterlimit="10" stroke-linecap="round"/>
<path d="M47.3857 7.1127L47.9881 5.32086" stroke="#1AFF7C" stroke-width="1.5" stroke-miterlimit="10" stroke-linecap="round"/>
<path d="M47.9878 5.32076L48.5902 3.50226" stroke="#1AFF7C" stroke-width="1.5" stroke-miterlimit="10" stroke-linecap="round"/>
<path d="M48.5903 3.50226L49.1927 4.26145" stroke="#1AFF7C" stroke-width="1.5" stroke-miterlimit="10" stroke-linecap="round"/>
<path d="M49.1929 4.26154L49.7953 5.16411" stroke="#1AFF7C" stroke-width="1.5" stroke-miterlimit="10" stroke-linecap="round"/>
<path d="M49.7949 5.16405L50.3973 5.0882" stroke="#1AFF7C" stroke-width="1.5" stroke-miterlimit="10" stroke-linecap="round"/>
<path d="M50.3975 5.08819L50.9999 3.47858" stroke="#1AFF7C" stroke-width="1.5" stroke-miterlimit="10" stroke-linecap="round"/>
<path d="M51 3.47858L51.6024 3.86894" stroke="#1AFF7C" stroke-width="1.5" stroke-miterlimit="10" stroke-linecap="round"/>
<path d="M51.6025 3.86888L52.205 3.27618" stroke="#1AFF7C" stroke-width="1.5" stroke-miterlimit="10" stroke-linecap="round"/>
<path d="M52.2051 3.27622L52.8075 3.06232" stroke="#1AFF7C" stroke-width="1.5" stroke-miterlimit="10" stroke-linecap="round"/>
<path d="M52.8071 3.06232L53.4095 2.38971" stroke="#1AFF7C" stroke-width="1.5" stroke-miterlimit="10" stroke-linecap="round"/>
<path d="M53.4097 2.38971L54.0121 4.14897" stroke="#1AFF7C" stroke-width="1.5" stroke-miterlimit="10" stroke-linecap="round"/>
<path d="M54.0122 4.14899L54.6146 4.2655" stroke="#1AFF7C" stroke-width="1.5" stroke-miterlimit="10" stroke-linecap="round"/>
<path d="M54.6143 4.26566L55.2167 3.42047" stroke="#1AFF7C" stroke-width="1.5" stroke-miterlimit="10" stroke-linecap="round"/>
<path d="M55.2168 3.42047L55.8192 4.081" stroke="#1AFF7C" stroke-width="1.5" stroke-miterlimit="10" stroke-linecap="round"/>
<path d="M55.8193 4.08105L56.4217 3.24689" stroke="#1AFF7C" stroke-width="1.5" stroke-miterlimit="10" stroke-linecap="round"/>
<path d="M56.4219 3.24689L57.0243 4.63152" stroke="#1AFF7C" stroke-width="1.5" stroke-miterlimit="10" stroke-linecap="round"/>
<path d="M57.0239 4.63141L57.6263 5.09101" stroke="#1AFF7C" stroke-width="1.5" stroke-miterlimit="10" stroke-linecap="round"/>
<path d="M57.6265 5.09106L58.2289 4.409" stroke="#1AFF7C" stroke-width="1.5" stroke-miterlimit="10" stroke-linecap="round"/>
<path d="M58.229 4.409L58.8314 5.12485" stroke="#1AFF7C" stroke-width="1.5" stroke-miterlimit="10" stroke-linecap="round"/>
<path d="M58.8311 5.12482L59.4335 6.17854" stroke="#1AFF7C" stroke-width="1.5" stroke-miterlimit="10" stroke-linecap="round"/>
<path d="M59.4336 6.17853L60.036 7.36871" stroke="#1AFF7C" stroke-width="1.5" stroke-miterlimit="10" stroke-linecap="round"/>
<path d="M60.0361 7.3686L60.6385 5.86847" stroke="#1AFF7C" stroke-width="1.5" stroke-miterlimit="10" stroke-linecap="round"/>
<path d="M60.6387 5.86847L61.2411 7.25237" stroke="#1AFF7C" stroke-width="1.5" stroke-miterlimit="10" stroke-linecap="round"/>
<path d="M61.2412 7.25257L61.8436 5.11847" stroke="#1AFF7C" stroke-width="1.5" stroke-miterlimit="10" stroke-linecap="round"/>
<path d="M61.8433 5.11847L62.4457 7.71551" stroke="#1AFF7C" stroke-width="1.5" stroke-miterlimit="10" stroke-linecap="round"/>
<path d="M62.4458 7.71529L63.0482 7.58112" stroke="#1AFF7C" stroke-width="1.5" stroke-miterlimit="10" stroke-linecap="round"/>
<path d="M63.0483 7.58134L63.6507 6.60382" stroke="#1AFF7C" stroke-width="1.5" stroke-miterlimit="10" stroke-linecap="round"/>
<path d="M63.6504 6.60364L64.2528 6.54474" stroke="#1AFF7C" stroke-width="1.5" stroke-miterlimit="10" stroke-linecap="round"/>
<path d="M64.2529 6.54474L64.8553 7.36901" stroke="#1AFF7C" stroke-width="1.5" stroke-miterlimit="10" stroke-linecap="round"/>
<path d="M64.8555 7.36914L65.4579 7.34454" stroke="#1AFF7C" stroke-width="1.5" stroke-miterlimit="10" stroke-linecap="round"/>
<path d="M65.458 7.34438L66.0604 6.45221" stroke="#1AFF7C" stroke-width="1.5" stroke-miterlimit="10" stroke-linecap="round"/>
<path d="M66.0605 6.45229L66.663 6.20514" stroke="#1AFF7C" stroke-width="1.5" stroke-miterlimit="10" stroke-linecap="round"/>
<path d="M66.6626 6.20514L67.265 7.40663" stroke="#1AFF7C" stroke-width="1.5" stroke-miterlimit="10" stroke-linecap="round"/>
<path d="M67.2651 7.40656L67.8675 7.78729" stroke="#1AFF7C" stroke-width="1.5" stroke-miterlimit="10" stroke-linecap="round"/>
<path d="M67.8672 7.78742L68.4696 6.64435" stroke="#1AFF7C" stroke-width="1.5" stroke-miterlimit="10" stroke-linecap="round"/>
<path d="M68.4697 6.64435L69.0721 6.04498" stroke="#1AFF7C" stroke-width="1.5" stroke-miterlimit="10" stroke-linecap="round"/>
<path d="M69.0723 6.04498L69.6747 7.58448" stroke="#1AFF7C" stroke-width="1.5" stroke-miterlimit="10" stroke-linecap="round"/>
<path d="M69.6748 7.58453L70.2772 7.74028" stroke="#1AFF7C" stroke-width="1.5" stroke-miterlimit="10" stroke-linecap="round"/>
<path d="M70.2773 7.74021L70.8798 7.52716" stroke="#1AFF7C" stroke-width="1.5" stroke-miterlimit="10" stroke-linecap="round"/>
<path d="M70.8794 7.52713L71.4818 6.66022" stroke="#1AFF7C" stroke-width="1.5" stroke-miterlimit="10" stroke-linecap="round"/>
<path d="M71.4819 6.66008L72.0843 6.58014" stroke="#1AFF7C" stroke-width="1.5" stroke-miterlimit="10" stroke-linecap="round"/>
<path d="M72.0845 6.58038L72.6869 4.42242" stroke="#1AFF7C" stroke-width="1.5" stroke-miterlimit="10" stroke-linecap="round"/>
<path d="M72.6865 4.42243L73.2889 0.903381" stroke="#1AFF7C" stroke-width="1.5" stroke-miterlimit="10" stroke-linecap="round"/>
<path d="M73.2891 0.903381L73.8915 2.62896" stroke="#1AFF7C" stroke-width="1.5" stroke-miterlimit="10" stroke-linecap="round"/>
<path d="M73.8916 2.6289L74.494 1.81549" stroke="#1AFF7C" stroke-width="1.5" stroke-miterlimit="10" stroke-linecap="round"/>
<path d="M74.4941 1.81549L75.0966 2.71526" stroke="#1AFF7C" stroke-width="1.5" stroke-miterlimit="10" stroke-linecap="round"/>
<path d="M75.0967 2.71515L75.6991 4.27764" stroke="#1AFF7C" stroke-width="1.5" stroke-miterlimit="10" stroke-linecap="round"/>
<path d="M75.6987 4.27765L76.3011 6.33495" stroke="#1AFF7C" stroke-width="1.5" stroke-miterlimit="10" stroke-linecap="round"/>
<path d="M76.3013 6.33497L76.9037 4.90436" stroke="#1AFF7C" stroke-width="1.5" stroke-miterlimit="10" stroke-linecap="round"/>
<path d="M76.9033 4.90436L77.5057 6.13383" stroke="#1AFF7C" stroke-width="1.5" stroke-miterlimit="10" stroke-linecap="round"/>
<path d="M77.5059 6.13376L78.1083 6.08551" stroke="#1AFF7C" stroke-width="1.5" stroke-miterlimit="10" stroke-linecap="round"/>
<path d="M78.1084 6.08567L78.7108 6.03815" stroke="#1AFF7C" stroke-width="1.5" stroke-miterlimit="10" stroke-linecap="round"/>
<path d="M78.7109 6.03815L79.3134 5.31476" stroke="#1AFF7C" stroke-width="1.5" stroke-miterlimit="10" stroke-linecap="round"/>
<path d="M79.3135 5.31472L79.9159 4.95929" stroke="#1AFF7C" stroke-width="1.5" stroke-miterlimit="10" stroke-linecap="round"/>
<path d="M79.9155 4.95929L80.5179 7.22691" stroke="#1AFF7C" stroke-width="1.5" stroke-miterlimit="10" stroke-linecap="round"/>
<path d="M80.5181 7.22674L81.1205 6.28668" stroke="#1AFF7C" stroke-width="1.5" stroke-miterlimit="10" stroke-linecap="round"/>
<path d="M81.1206 6.28668L81.723 6.74832" stroke="#1AFF7C" stroke-width="1.5" stroke-miterlimit="10" stroke-linecap="round"/>
<path d="M81.7227 6.74835L82.3251 7.22558" stroke="#1AFF7C" stroke-width="1.5" stroke-miterlimit="10" stroke-linecap="round"/>
<path d="M82.3252 7.2257L82.9276 6.34552" stroke="#1AFF7C" stroke-width="1.5" stroke-miterlimit="10" stroke-linecap="round"/>
<path d="M82.9277 6.34552L83.5301 7.15834" stroke="#1AFF7C" stroke-width="1.5" stroke-miterlimit="10" stroke-linecap="round"/>
<path d="M83.5303 7.15828L84.1327 6.51886" stroke="#1AFF7C" stroke-width="1.5" stroke-miterlimit="10" stroke-linecap="round"/>
<path d="M84.1328 6.51893L84.7352 5.09894" stroke="#1AFF7C" stroke-width="1.5" stroke-miterlimit="10" stroke-linecap="round"/>
<path d="M84.7349 5.09885L85.3373 4.78082" stroke="#1AFF7C" stroke-width="1.5" stroke-miterlimit="10" stroke-linecap="round"/>
<path d="M85.3374 4.78082L85.9398 4.96556" stroke="#1AFF7C" stroke-width="1.5" stroke-miterlimit="10" stroke-linecap="round"/>
<path d="M85.9395 4.96566L86.5419 4.08502" stroke="#1AFF7C" stroke-width="1.5" stroke-miterlimit="10" stroke-linecap="round"/>
<path d="M86.542 4.08491L87.1444 3.92804" stroke="#1AFF7C" stroke-width="1.5" stroke-miterlimit="10" stroke-linecap="round"/>
<path d="M87.1445 3.92804L87.7469 4.56973" stroke="#1AFF7C" stroke-width="1.5" stroke-miterlimit="10" stroke-linecap="round"/>
<path d="M87.7471 4.56975L88.3495 4.00446" stroke="#1AFF7C" stroke-width="1.5" stroke-miterlimit="10" stroke-linecap="round"/>
<path d="M88.3496 4.00446L88.952 4.14097" stroke="#1AFF7C" stroke-width="1.5" stroke-miterlimit="10" stroke-linecap="round"/>
<path d="M88.9517 4.14093L89.5541 4.30497" stroke="#1AFF7C" stroke-width="1.5" stroke-miterlimit="10" stroke-linecap="round"/>
<path d="M89.5542 4.30502L90.1566 3.69147" stroke="#1AFF7C" stroke-width="1.5" stroke-miterlimit="10" stroke-linecap="round"/>
<path d="M90.1567 3.69157L90.7592 2.81403" stroke="#1AFF7C" stroke-width="1.5" stroke-miterlimit="10" stroke-linecap="round"/>
<path d="M90.7588 2.81403L91.3612 3.12424" stroke="#1AFF7C" stroke-width="1.5" stroke-miterlimit="10" stroke-linecap="round"/>
<path d="M91.3613 3.12408L91.9637 3.7443" stroke="#1AFF7C" stroke-width="1.5" stroke-miterlimit="10" stroke-linecap="round"/>
<path d="M91.9639 3.74445L92.5663 4.30016" stroke="#1AFF7C" stroke-width="1.5" stroke-miterlimit="10" stroke-linecap="round"/>
<path d="M92.5664 4.30022L93.1688 3.98737" stroke="#1AFF7C" stroke-width="1.5" stroke-miterlimit="10" stroke-linecap="round"/>
<path d="M93.1689 3.98737L93.7713 4.04507" stroke="#1AFF7C" stroke-width="1.5" stroke-miterlimit="10" stroke-linecap="round"/>
<path d="M93.771 4.04498L94.3734 4.76752" stroke="#1AFF7C" stroke-width="1.5" stroke-miterlimit="10" stroke-linecap="round"/>
<path d="M94.3735 4.7674L94.9759 4.83255" stroke="#1AFF7C" stroke-width="1.5" stroke-miterlimit="10" stroke-linecap="round"/>
<path d="M94.9756 4.83266L95.578 4.15094" stroke="#1AFF7C" stroke-width="1.5" stroke-miterlimit="10" stroke-linecap="round"/>
<path d="M95.5781 4.15103L96.1805 4.04254" stroke="#1AFF7C" stroke-width="1.5" stroke-miterlimit="10" stroke-linecap="round"/>
<path d="M96.1807 4.04235L96.7831 3.75421" stroke="#1AFF7C" stroke-width="1.5" stroke-miterlimit="10" stroke-linecap="round"/>
<path d="M96.7832 3.75436L97.3856 3.72882" stroke="#1AFF7C" stroke-width="1.5" stroke-miterlimit="10" stroke-linecap="round"/>
<path d="M97.3857 3.72882L97.9881 5.66619" stroke="#1AFF7C" stroke-width="1.5" stroke-miterlimit="10" stroke-linecap="round"/>
<path d="M97.9878 5.66625L98.5902 4.86481" stroke="#1AFF7C" stroke-width="1.5" stroke-miterlimit="10" stroke-linecap="round"/>
<path d="M98.5903 4.86467L99.1927 3.23712" stroke="#1AFF7C" stroke-width="1.5" stroke-miterlimit="10" stroke-linecap="round"/>
<path d="M99.1929 3.23723L99.7953 1.04498" stroke="#1AFF7C" stroke-width="1.5" stroke-miterlimit="10" stroke-linecap="round"/>
<path d="M99.7949 1.04498L100.397 1.18655" stroke="#1AFF7C" stroke-width="1.5" stroke-miterlimit="10" stroke-linecap="round"/>
<path d="M100.397 1.18658L101 1.53209" stroke="#1AFF7C" stroke-width="1.5" stroke-miterlimit="10" stroke-linecap="round"/>
<path d="M124 20.5374C124 20.9352 123.842 21.3168 123.561 21.5981C123.279 21.8794 122.898 22.0374 122.5 22.0374C122.102 22.0374 121.721 21.8794 121.439 21.5981C121.158 21.3168 121 20.9352 121 20.5374C121 20.1396 121.158 19.7581 121.439 19.4768C121.721 19.1954 122.102 19.0374 122.5 19.0374C122.898 19.0374 123.279 19.1954 123.561 19.4768C123.842 19.7581 124 20.1396 124 20.5374ZM124 15.5374C124 15.9352 123.842 16.3168 123.561 16.5981C123.279 16.8794 122.898 17.0374 122.5 17.0374C122.102 17.0374 121.721 16.8794 121.439 16.5981C121.158 16.3168 121 15.9352 121 15.5374C121 15.1396 121.158 14.7581 121.439 14.4768C121.721 14.1954 122.102 14.0374 122.5 14.0374C122.898 14.0374 123.279 14.1954 123.561 14.4768C123.842 14.7581 124 15.1396 124 15.5374ZM124 10.5374C124 10.9352 123.842 11.3168 123.561 11.5981C123.279 11.8794 122.898 12.0374 122.5 12.0374C122.102 12.0374 121.721 11.8794 121.439 11.5981C121.158 11.3168 121 10.9352 121 10.5374C121 10.1396 121.158 9.75806 121.439 9.47675C121.721 9.19545 122.102 9.03741 122.5 9.03741C122.898 9.03741 123.279 9.19545 123.561 9.47675C123.842 9.75806 124 10.1396 124 10.5374Z" fill="white"/>
</svg>
