<svg width="129" height="129" viewBox="0 0 129 129" fill="none" xmlns="http://www.w3.org/2000/svg">
<path opacity="0.2" d="M67.5293 68.696H62.5342V86.8035H67.5293C75.0079 86.8035 77.3352 83.4261 77.3352 77.4518C77.3352 71.4774 75.0079 68.696 67.5293 68.696Z" stroke="white" stroke-miterlimit="10"/>
<path opacity="0.2" d="M64.9181 0.537599C52.3492 0.534792 40.0617 4.25934 29.6097 11.2402C19.1577 18.2211 11.0106 28.1447 6.19871 39.756C1.38685 51.3674 0.126396 64.1449 2.57675 76.4727C5.0271 88.8004 11.0782 100.125 19.9648 109.013C28.8513 117.902 40.1742 123.955 52.5014 126.408C64.8286 128.862 77.6064 127.604 89.2188 122.795C100.831 117.985 110.757 109.841 117.74 99.3901C124.723 88.9396 128.45 76.653 128.45 64.0841C128.45 47.233 121.757 31.0718 109.843 19.1549C97.9289 7.23808 81.7692 0.541362 64.9181 0.537599V0.537599ZM64.9181 118.321C54.1982 118.324 43.7182 115.148 34.8038 109.194C25.8893 103.24 18.9409 94.776 14.8372 84.8726C10.7336 74.9692 9.65919 64.0713 11.7498 53.5572C13.8405 43.0432 19.0023 33.3853 26.5825 25.8052C34.1626 18.2251 43.8205 13.0632 54.3345 10.9726C64.8486 8.8819 75.7465 9.95634 85.6499 14.06C95.5533 18.1636 104.017 25.1121 109.971 34.0265C115.925 42.941 119.101 53.4209 119.099 64.1408C119.065 78.4948 113.344 92.2503 103.189 102.395C93.0337 112.539 79.2721 118.246 64.9181 118.265V118.321Z" stroke="white" stroke-miterlimit="10"/>
<path opacity="0.2" d="M75.9019 51.6671C75.9019 46.4023 73.5888 43.8196 66.9901 43.8196H62.5342V59.6991H66.9901C73.5037 59.6991 75.9019 56.9319 75.9019 51.6671Z" stroke="white" stroke-miterlimit="10"/>
<path opacity="0.2" d="M64.9182 13.6213C54.937 13.6185 45.1792 16.5757 36.8788 22.1189C28.5784 27.6621 22.1083 35.5423 18.2867 44.7629C14.4652 53.9834 13.4638 64.1302 15.4093 73.9199C17.3548 83.7096 22.1598 92.7025 29.2165 99.7613C36.2733 106.82 45.2648 111.627 55.054 113.576C64.8431 115.524 74.9902 114.525 84.2119 110.707C93.4335 106.888 101.316 100.42 106.861 92.1208C112.407 83.822 115.367 74.065 115.367 64.0839C115.351 50.7074 110.032 37.883 100.575 28.4231C91.1176 18.9632 78.2946 13.6401 64.9182 13.6213V13.6213ZM75.022 93.6575V105.01H68.6078V94.14H62.6476V104.996H56.2334V94.1258H41.9149V85.6113H44.753C45.3702 85.5187 45.9396 85.2251 46.3732 84.7762C46.8067 84.3273 47.0802 83.748 47.1513 83.1279V47.0833C47.0802 46.4632 46.8067 45.8839 46.3732 45.435C45.9396 44.9861 45.3702 44.6926 44.753 44.5999H41.9149V36.0854H56.205V25.1585H62.6193V36.0854H68.5794V25.2294H74.9936V36.5821C85.1117 38.0012 90.4474 42.7409 90.4474 50.9999C90.4474 58.294 86.3037 61.8559 78.6832 63.4311V63.7575C87.5383 65.0914 92.4341 69.4338 92.4341 77.2671C92.4341 86.7182 85.878 92.1391 74.9936 93.6575H75.022Z" stroke="white" stroke-miterlimit="10"/>
</svg>
