<svg width="222" height="334" viewBox="0 0 222 334" fill="none" xmlns="http://www.w3.org/2000/svg">
<g opacity="0.6">
<path opacity="0.6" d="M80.8421 3.79175L-9.60258 18.7348L-83.007 66.5787L-119.906 166.723L-75.5354 281.811L19.3659 330.572L104.174 317.858L182.756 267.785L220.573 165.871L176.596 52.5532L80.8421 3.79175Z" stroke="#0071BC" stroke-width="0.8601" stroke-miterlimit="10"/>
<path opacity="0.6" d="M19.3659 330.572L-12.683 298.064L-16.2221 193.529L9.27282 88.5343L-9.60259 18.7346L-83.859 113.177L-119.906 166.723L-85.6285 221.645L-12.683 298.064L104.174 317.857L172.204 226.495L176.595 117.962V52.5531" stroke="#0071BC" stroke-width="0.8601" stroke-miterlimit="10"/>
<path opacity="0.6" d="M80.842 3.79175L100.176 41.0838L98.0134 149.159L74.2881 252.842L104.174 317.858" stroke="#0071BC" stroke-width="0.8601" stroke-miterlimit="10"/>
<path opacity="0.6" d="M-9.93042 18.7346L100.504 41.2802L176.595 52.5531" stroke="#0071BC" stroke-width="0.8601" stroke-miterlimit="10"/>
<path opacity="0.6" d="M-83.728 113.571L8.81392 88.4035L100.504 41.2805L176.333 117.7L220.245 165.74L172.204 226.495" stroke="#0071BC" stroke-width="0.8601" stroke-miterlimit="10"/>
<path opacity="0.6" d="M-84.0557 113.571L-16.6809 193.529L73.8293 252.842" stroke="#0071BC" stroke-width="0.8601" stroke-miterlimit="10"/>
<path opacity="0.6" d="M182.756 268.178L172.204 226.036L97.5546 148.7L9.27271 88.1411" stroke="#0071BC" stroke-width="0.8601" stroke-miterlimit="10"/>
<path opacity="0.6" d="M176.595 118.42L98.0134 149.158L-16.6809 193.529L-86.0874 222.104" stroke="#0071BC" stroke-width="0.8601" stroke-miterlimit="10"/>
<path opacity="0.6" d="M-75.5354 281.811L-13.1417 297.606L73.3706 252.842L172.204 226.495" stroke="#0071BC" stroke-width="0.8601" stroke-miterlimit="10"/>
<g opacity="0.6">
<path opacity="0.6" d="M179.873 52.8153C179.873 54.716 178.365 56.2234 176.464 56.2234C174.564 56.2234 173.056 54.716 173.056 52.8153C173.056 50.9147 174.564 49.4073 176.464 49.4073C178.365 49.3417 179.873 50.9147 179.873 52.8153Z" fill="#0071BC"/>
<path opacity="0.6" d="M180.069 117.962C180.069 119.862 178.562 121.37 176.661 121.37C174.76 121.37 173.253 119.862 173.253 117.962C173.253 116.061 174.76 114.554 176.661 114.554C178.496 114.554 180.069 116.061 180.069 117.962Z" fill="#0071BC"/>
<path opacity="0.6" d="M101.422 149.159C101.422 151.059 99.9142 152.567 98.0135 152.567C96.1129 152.567 94.6055 151.059 94.6055 149.159C94.6055 147.258 96.1129 145.75 98.0135 145.75C99.9142 145.75 101.422 147.258 101.422 149.159Z" fill="#0071BC"/>
<path opacity="0.6" d="M175.678 226.036C175.678 227.937 174.171 229.445 172.27 229.445C170.369 229.445 168.862 227.937 168.862 226.036C168.862 224.136 170.369 222.628 172.27 222.628C174.105 222.628 175.678 224.136 175.678 226.036Z" fill="#0071BC"/>
<path opacity="0.6" d="M186.23 267.785C186.23 269.686 184.722 271.193 182.822 271.193C180.921 271.193 179.414 269.686 179.414 267.785C179.414 265.885 180.921 264.377 182.822 264.377C184.657 264.312 186.23 265.885 186.23 267.785Z" fill="#0071BC"/>
<path opacity="0.6" d="M107.582 317.595C107.582 319.496 106.075 321.003 104.174 321.003C102.274 321.003 100.766 319.43 100.766 317.595C100.766 315.694 102.274 314.187 104.174 314.187C106.009 314.187 107.582 315.694 107.582 317.595Z" fill="#0071BC"/>
<path opacity="0.6" d="M77.696 252.383C77.696 254.284 76.1886 255.791 74.288 255.791C72.3873 255.791 70.8799 254.284 70.8799 252.383C70.8799 250.483 72.3873 248.975 74.288 248.975C76.1886 248.975 77.696 250.483 77.696 252.383Z" fill="#0071BC"/>
<path opacity="0.6" d="M21.9221 330.376C21.9221 332.276 20.4147 333.784 18.514 333.784C16.6134 333.784 15.106 332.211 15.106 330.376C15.106 328.475 16.6134 326.968 18.514 326.968C20.4147 326.902 21.9221 328.475 21.9221 330.376Z" fill="#0071BC"/>
<path opacity="0.6" d="M12.6809 88.3378C12.6809 90.2384 11.1735 91.7458 9.2728 91.7458C7.37216 91.7458 5.86475 90.2384 5.86475 88.3378C5.86475 86.4371 7.37216 84.9297 9.2728 84.9297C11.1735 84.8642 12.6809 86.4371 12.6809 88.3378Z" fill="#0071BC"/>
<path opacity="0.6" d="M104.109 41.6078C104.109 43.5084 102.601 45.0159 100.701 45.0159C98.7999 45.0159 97.2925 43.5084 97.2925 41.6078C97.2925 39.7071 98.7999 38.1997 100.701 38.1997C102.601 38.1342 104.109 39.7071 104.109 41.6078Z" fill="#0071BC"/>
<path opacity="0.6" d="M84.3156 3.79163C84.3156 5.69228 82.8082 7.19969 80.9076 7.19969C79.0069 7.19969 77.4995 5.69228 77.4995 3.79163C77.4995 1.89098 79.0069 0.383569 80.9076 0.383569C82.7427 0.318029 84.3156 1.89098 84.3156 3.79163Z" fill="#0071BC"/>
</g>
</g>
</svg>
