<svg width="220" height="298" viewBox="0 0 220 298" fill="none" xmlns="http://www.w3.org/2000/svg">
<path opacity="0.2" d="M187.477 195.805L97.0498 38.8018L98.8301 192.092L187.477 195.805Z" stroke="#329DE3" stroke-miterlimit="10"/>
<path opacity="0.2" d="M192.16 192.063L233.035 116.846L101.804 35.1393" stroke="#329DE3" stroke-miterlimit="10"/>
<path opacity="0.2" d="M234.181 116.869L148.374 120.442L97.2822 193.033" stroke="#329DE3" stroke-miterlimit="10"/>
<path opacity="0.2" d="M234.217 127.466L192.75 203.875L101.716 197.724L226.456 261.147L234.217 127.466Z" stroke="#329DE3" stroke-miterlimit="10"/>
<path opacity="0.2" d="M193.147 204.248L223.622 258.765" stroke="#329DE3" stroke-miterlimit="10"/>
<path opacity="0.2" d="M183.059 192.531C182.605 191.74 182.377 190.851 182.403 189.979C182.428 189.106 182.706 188.288 183.201 187.628C183.697 186.968 184.388 186.495 185.187 186.269C185.986 186.044 186.857 186.075 187.691 186.36C188.524 186.645 189.283 187.17 189.871 187.869C190.459 188.569 190.85 189.411 190.995 190.29C191.139 191.169 191.031 192.045 190.684 192.808C190.336 193.57 189.765 194.186 189.043 194.576C188.561 194.836 188.023 194.989 187.461 195.027C186.899 195.066 186.323 194.987 185.767 194.797C185.211 194.607 184.685 194.309 184.221 193.921C183.756 193.532 183.361 193.06 183.059 192.531V192.531Z" stroke="#329DE3" stroke-miterlimit="10"/>
<path opacity="0.2" d="M91.6141 195.008C91.149 194.213 90.9104 193.318 90.9285 192.437C90.9466 191.555 91.2206 190.727 91.7158 190.057C92.211 189.387 92.9049 188.905 93.7095 188.674C94.5141 188.442 95.393 188.47 96.2346 188.755C97.0762 189.04 97.8426 189.569 98.4363 190.275C99.03 190.98 99.4243 191.83 99.5691 192.717C99.7139 193.604 99.6027 194.487 99.2496 195.255C98.8965 196.023 98.3174 196.641 97.5859 197.03C96.6157 197.554 95.4416 197.635 94.3217 197.256C93.2018 196.876 92.2278 196.068 91.6141 195.008V195.008Z" stroke="#329DE3" stroke-miterlimit="10"/>
<path opacity="0.2" d="M98.994 41.6089C98.5295 40.8153 98.2908 39.9216 98.3083 39.041C98.3258 38.1604 98.5986 37.3327 99.0922 36.6626C99.5859 35.9926 100.278 35.5104 101.081 35.2772C101.884 35.044 102.762 35.0704 103.603 35.3528C104.444 35.6353 105.211 36.1612 105.806 36.8639C106.401 37.5666 106.798 38.4144 106.946 39.3C107.094 40.1855 106.987 41.0689 106.638 41.8382C106.289 42.6074 105.714 43.2279 104.986 43.621C104.014 44.1457 102.838 44.2285 101.715 43.8515C100.592 43.4745 99.6141 42.6682 98.994 41.6089V41.6089Z" stroke="#329DE3" stroke-miterlimit="10"/>
<path opacity="0.2" d="M189.33 203.212C188.87 202.417 188.636 201.524 188.657 200.645C188.679 199.766 188.955 198.941 189.451 198.274C189.947 197.607 190.64 197.128 191.443 196.898C192.247 196.668 193.123 196.697 193.963 196.981C194.803 197.266 195.568 197.793 196.161 198.496C196.754 199.199 197.149 200.046 197.296 200.931C197.442 201.816 197.334 202.698 196.985 203.466C196.636 204.234 196.061 204.853 195.334 205.246C194.852 205.51 194.314 205.667 193.75 205.707C193.186 205.748 192.608 205.671 192.05 205.482C191.492 205.293 190.964 204.995 190.497 204.605C190.03 204.216 189.633 203.742 189.33 203.212V203.212Z" stroke="#329DE3" stroke-miterlimit="10"/>
<path opacity="0.2" d="M145.29 124.429C144.83 123.634 144.596 122.741 144.617 121.862C144.639 120.983 144.915 120.158 145.411 119.491C145.907 118.824 146.6 118.345 147.403 118.115C148.207 117.885 149.083 117.914 149.923 118.198C150.763 118.483 151.528 119.01 152.121 119.713C152.714 120.416 153.109 121.263 153.256 122.148C153.402 123.032 153.294 123.915 152.945 124.683C152.596 125.451 152.021 126.07 151.294 126.463C150.812 126.727 150.274 126.883 149.71 126.924C149.146 126.965 148.568 126.888 148.01 126.699C147.452 126.51 146.924 126.212 146.457 125.822C145.99 125.433 145.593 124.959 145.29 124.429V124.429Z" stroke="#329DE3" stroke-miterlimit="10"/>
<path opacity="0.2" d="M97.8651 204.392C97.4094 203.596 97.1798 202.703 97.2054 201.825C97.2309 200.948 97.5104 200.125 98.0085 199.462C98.5067 198.798 99.2012 198.322 100.004 198.096C100.808 197.869 101.684 197.9 102.522 198.187C103.36 198.473 104.123 199.001 104.714 199.704C105.305 200.408 105.699 201.255 105.844 202.138C105.989 203.022 105.881 203.903 105.531 204.67C105.182 205.436 104.608 206.055 103.882 206.447C103.397 206.709 102.857 206.863 102.291 206.901C101.726 206.94 101.147 206.861 100.588 206.67C100.029 206.479 99.5008 206.179 99.0334 205.788C98.5661 205.397 98.169 204.923 97.8651 204.392Z" stroke="#329DE3" stroke-miterlimit="10"/>
<path opacity="0.2" d="M220.424 260.537C219.959 259.743 219.72 258.848 219.739 257.966C219.757 257.085 220.031 256.256 220.526 255.586C221.021 254.916 221.715 254.435 222.52 254.203C223.324 253.972 224.203 254 225.045 254.285C225.886 254.57 226.653 255.099 227.246 255.804C227.84 256.51 228.234 257.36 228.379 258.246C228.524 259.133 228.413 260.017 228.06 260.785C227.706 261.553 227.127 262.171 226.396 262.56C225.426 263.084 224.252 263.165 223.132 262.785C222.012 262.406 221.038 261.597 220.424 260.537V260.537Z" stroke="#329DE3" stroke-miterlimit="10"/>
</svg>
