<svg width="3" height="14" viewBox="0 0 3 14" fill="none" xmlns="http://www.w3.org/2000/svg">
<path d="M3 11.7325C3 12.1303 2.84196 12.5118 2.56066 12.7931C2.27936 13.0744 1.89782 13.2325 1.5 13.2325C1.10218 13.2325 0.720644 13.0744 0.43934 12.7931C0.158035 12.5118 0 12.1303 0 11.7325C0 11.3347 0.158035 10.9531 0.43934 10.6718C0.720644 10.3905 1.10218 10.2325 1.5 10.2325C1.89782 10.2325 2.27936 10.3905 2.56066 10.6718C2.84196 10.9531 3 11.3347 3 11.7325ZM3 6.73248C3 7.13031 2.84196 7.51184 2.56066 7.79314C2.27936 8.07445 1.89782 8.23248 1.5 8.23248C1.10218 8.23248 0.720644 8.07445 0.43934 7.79314C0.158035 7.51184 0 7.13031 0 6.73248C0 6.33466 0.158035 5.95313 0.43934 5.67182C0.720644 5.39052 1.10218 5.23248 1.5 5.23248C1.89782 5.23248 2.27936 5.39052 2.56066 5.67182C2.84196 5.95313 3 6.33466 3 6.73248ZM3 1.73248C3 2.13031 2.84196 2.51184 2.56066 2.79314C2.27936 3.07445 1.89782 3.23248 1.5 3.23248C1.10218 3.23248 0.720644 3.07445 0.43934 2.79314C0.158035 2.51184 0 2.13031 0 1.73248C0 1.33466 0.158035 0.953127 0.43934 0.671823C0.720644 0.390518 1.10218 0.232483 1.5 0.232483C1.89782 0.232483 2.27936 0.390518 2.56066 0.671823C2.84196 0.953127 3 1.33466 3 1.73248Z" fill="white"/>
</svg>
